<svg width="143" height="40" viewBox="0 0 143 40" fill="none" xmlns="http://www.w3.org/2000/svg">
<path d="M8.65631 20.2957C8.01747 19.6566 8.01747 18.6218 8.65631 17.983C8.91525 17.6014 9.33092 17.4446 9.75342 17.4446C10.1759 17.4446 10.5916 17.6014 10.9098 17.9264L13.5694 20.586V1.63543C13.5694 0.732538 14.302 0 15.2049 0C16.1078 0 16.8403 0.732538 16.8403 1.63543V20.586L19.5592 17.983C20.1984 17.3441 21.2331 17.3438 21.872 17.983C22.5108 18.6221 22.5108 19.6569 21.872 20.2957L16.4205 25.7472C15.7814 26.386 14.7466 26.386 14.1078 25.7472L8.65631 20.2957Z" fill="#0F49BD"/>
<path fill-rule="evenodd" clip-rule="evenodd" d="M8.79046 5.11073C9.69369 5.11073 10.4259 5.84294 10.4259 6.74617C10.4259 7.64939 9.69369 8.3816 8.79046 8.3816H5.45145C4.24736 8.3816 3.27087 9.35809 3.27087 10.5622V29.5528C3.93867 29.2589 4.67598 29.0971 5.45145 29.0971H27.2572V8.3816H21.7377C20.8344 8.3816 20.1022 7.64939 20.1022 6.74617C20.1022 5.84294 20.8344 5.11073 21.7377 5.11073H27.2572C29.063 5.11073 30.5281 6.57786 30.5281 8.3816V29.0971C30.5281 30.5145 29.615 31.7138 28.3475 32.167V36.7291H28.8927C29.7956 36.7291 30.5281 37.4617 30.5281 38.3646C30.5281 39.2675 29.7956 40 28.8927 40H5.45145C2.44088 40 0 37.5605 0 34.5485V10.5622C0 7.55162 2.44088 5.11073 5.45145 5.11073H8.79046ZM3.27087 34.5485C3.27087 33.3451 4.2494 32.368 5.45145 32.368H25.0767V36.7291H5.45145C4.2494 36.7291 3.27087 35.752 3.27087 34.5485Z" fill="#0F49BD"/>
<path d="M38.5281 37.1338V32.7702H40.0025C40.3435 32.7702 40.6233 32.8284 40.842 32.9449C41.0608 33.0599 41.2227 33.2183 41.3278 33.42C41.4329 33.6217 41.4855 33.8511 41.4855 34.1082C41.4855 34.3653 41.4329 34.5933 41.3278 34.7922C41.2227 34.991 41.0615 35.1473 40.8442 35.2609C40.6268 35.3731 40.3491 35.4292 40.0111 35.4292H38.8179V34.952H39.994C40.227 34.952 40.4145 34.9179 40.5565 34.8497C40.7 34.7815 40.8037 34.6849 40.8676 34.5599C40.9329 34.4335 40.9656 34.2829 40.9656 34.1082C40.9656 33.9335 40.9329 33.7808 40.8676 33.6501C40.8023 33.5194 40.6979 33.4186 40.5544 33.3476C40.4109 33.2751 40.2213 33.2389 39.9855 33.2389H39.0565V37.1338H38.5281ZM40.5821 35.1736L41.656 37.1338H41.0423L39.9855 35.1736H40.5821Z" fill="#0D3EA0"/>
<path d="M42.552 37.1338V32.7702H45.1855V33.2389H43.0804V34.7133H45.0492V35.1821H43.0804V36.665H45.2196V37.1338H42.552Z" fill="#0D3EA0"/>
<path d="M46.3239 37.1338V32.7702H47.7984C48.1407 32.7702 48.4205 32.8319 48.6379 32.9555C48.8566 33.0777 49.0185 33.2432 49.1237 33.452C49.2288 33.6608 49.2813 33.8937 49.2813 34.1508C49.2813 34.4079 49.2288 34.6416 49.1237 34.8518C49.02 35.0621 48.8595 35.2297 48.6421 35.3547C48.4248 35.4782 48.1464 35.54 47.8069 35.54H46.7501V35.0713H47.7899C48.0242 35.0713 48.2124 35.0308 48.3545 34.9498C48.4965 34.8689 48.5995 34.7595 48.6634 34.6217C48.7288 34.4825 48.7614 34.3255 48.7614 34.1508C48.7614 33.9761 48.7288 33.8199 48.6634 33.6821C48.5995 33.5443 48.4958 33.4363 48.3524 33.3582C48.2089 33.2787 48.0185 33.2389 47.7813 33.2389H46.8524V37.1338H46.3239Z" fill="#0D3EA0"/>
<path d="M54.0004 34.952C54.0004 35.4122 53.9173 35.8099 53.7511 36.1452C53.5849 36.4804 53.3569 36.7389 53.0671 36.9207C52.7773 37.1025 52.4464 37.1934 52.0742 37.1934C51.7021 37.1934 51.3711 37.1025 51.0813 36.9207C50.7915 36.7389 50.5636 36.4804 50.3974 36.1452C50.2312 35.8099 50.1481 35.4122 50.1481 34.952C50.1481 34.4917 50.2312 34.094 50.3974 33.7588C50.5636 33.4236 50.7915 33.165 51.0813 32.9832C51.3711 32.8014 51.7021 32.7105 52.0742 32.7105C52.4464 32.7105 52.7773 32.8014 53.0671 32.9832C53.3569 33.165 53.5849 33.4236 53.7511 33.7588C53.9173 34.094 54.0004 34.4917 54.0004 34.952ZM53.489 34.952C53.489 34.5741 53.4258 34.2552 53.2994 33.9953C53.1744 33.7354 53.0046 33.5386 52.7901 33.4051C52.5771 33.2716 52.3384 33.2048 52.0742 33.2048C51.81 33.2048 51.5707 33.2716 51.3562 33.4051C51.1431 33.5386 50.9734 33.7354 50.8469 33.9953C50.7219 34.2552 50.6594 34.5741 50.6594 34.952C50.6594 35.3298 50.7219 35.6487 50.8469 35.9086C50.9734 36.1686 51.1431 36.3653 51.3562 36.4988C51.5707 36.6324 51.81 36.6991 52.0742 36.6991C52.3384 36.6991 52.5771 36.6324 52.7901 36.4988C53.0046 36.3653 53.1744 36.1686 53.2994 35.9086C53.4258 35.6487 53.489 35.3298 53.489 34.952Z" fill="#0D3EA0"/>
<path d="M57.4612 33.8611C57.4356 33.6452 57.3319 33.4775 57.1501 33.3582C56.9683 33.2389 56.7453 33.1792 56.4811 33.1792C56.2879 33.1792 56.1189 33.2105 55.974 33.273C55.8305 33.3355 55.7183 33.4214 55.6373 33.5308C55.5578 33.6402 55.518 33.7645 55.518 33.9037C55.518 34.0202 55.5457 34.1203 55.6011 34.2041C55.6579 34.2865 55.7304 34.3554 55.8185 34.4108C55.9065 34.4648 55.9989 34.5095 56.0954 34.545C56.192 34.5791 56.2808 34.6068 56.3618 34.6281L56.805 34.7474C56.9186 34.7773 57.045 34.8184 57.1842 34.871C57.3248 34.9236 57.4591 34.9953 57.5869 35.0862C57.7162 35.1757 57.8227 35.2907 57.9065 35.4314C57.9903 35.572 58.0322 35.7446 58.0322 35.9491C58.0322 36.1849 57.9704 36.398 57.8469 36.5883C57.7247 36.7787 57.5457 36.93 57.3099 37.0422C57.0756 37.1544 56.7908 37.2105 56.4555 37.2105C56.143 37.2105 55.8724 37.1601 55.6437 37.0592C55.4165 36.9584 55.2375 36.8177 55.1068 36.6373C54.9775 36.4569 54.9044 36.2474 54.8873 36.0088H55.4328C55.447 36.1736 55.5024 36.3099 55.599 36.4179C55.697 36.5244 55.8206 36.604 55.9697 36.6565C56.1203 36.7077 56.2822 36.7332 56.4555 36.7332C56.6572 36.7332 56.8383 36.7005 56.9989 36.6352C57.1594 36.5684 57.2865 36.4761 57.3802 36.3582C57.474 36.2389 57.5209 36.0997 57.5209 35.9406C57.5209 35.7957 57.4804 35.6778 57.3994 35.5869C57.3185 35.496 57.2119 35.4221 57.0798 35.3653C56.9477 35.3085 56.805 35.2588 56.6516 35.2162L56.1146 35.0628C55.7737 34.9648 55.5038 34.8248 55.305 34.643C55.1061 34.4612 55.0067 34.2233 55.0067 33.9292C55.0067 33.6849 55.0727 33.4719 55.2048 33.29C55.3383 33.1068 55.5173 32.9648 55.7418 32.8639C55.9676 32.7616 56.2197 32.7105 56.4981 32.7105C56.7794 32.7105 57.0294 32.7609 57.2481 32.8618C57.4669 32.9612 57.6402 33.0976 57.768 33.2709C57.8973 33.4442 57.9655 33.6409 57.9726 33.8611H57.4612Z" fill="#0D3EA0"/>
<path d="M59.6154 32.7702V37.1338H59.087V32.7702H59.6154Z" fill="#0D3EA0"/>
<path d="M60.6223 33.2389V32.7702H63.895V33.2389H62.5228V37.1338H61.9944V33.2389H60.6223Z" fill="#0D3EA0"/>
<path d="M68.3967 34.952C68.3967 35.4122 68.3136 35.8099 68.1474 36.1452C67.9812 36.4804 67.7532 36.7389 67.4635 36.9207C67.1737 37.1025 66.8427 37.1934 66.4706 37.1934C66.0984 37.1934 65.7674 37.1025 65.4777 36.9207C65.1879 36.7389 64.9599 36.4804 64.7937 36.1452C64.6275 35.8099 64.5444 35.4122 64.5444 34.952C64.5444 34.4917 64.6275 34.094 64.7937 33.7588C64.9599 33.4236 65.1879 33.165 65.4777 32.9832C65.7674 32.8014 66.0984 32.7105 66.4706 32.7105C66.8427 32.7105 67.1737 32.8014 67.4635 32.9832C67.7532 33.165 67.9812 33.4236 68.1474 33.7588C68.3136 34.094 68.3967 34.4917 68.3967 34.952ZM67.8853 34.952C67.8853 34.5741 67.8221 34.2552 67.6957 33.9953C67.5707 33.7354 67.401 33.5386 67.1865 33.4051C66.9734 33.2716 66.7348 33.2048 66.4706 33.2048C66.2064 33.2048 65.967 33.2716 65.7525 33.4051C65.5395 33.5386 65.3697 33.7354 65.2433 33.9953C65.1183 34.2552 65.0558 34.5741 65.0558 34.952C65.0558 35.3298 65.1183 35.6487 65.2433 35.9086C65.3697 36.1686 65.5395 36.3653 65.7525 36.4988C65.967 36.6324 66.2064 36.6991 66.4706 36.6991C66.7348 36.6991 66.9734 36.6324 67.1865 36.4988C67.401 36.3653 67.5707 36.1686 67.6957 35.9086C67.8221 35.6487 67.8853 35.3298 67.8853 34.952ZM66.2404 32.327L66.7603 31.3383H67.3484L66.6836 32.327H66.2404Z" fill="#0D3EA0"/>
<path d="M69.4712 37.1338V32.7702H70.9456C71.2865 32.7702 71.5664 32.8284 71.7851 32.9449C72.0039 33.0599 72.1658 33.2183 72.2709 33.42C72.376 33.6217 72.4286 33.8511 72.4286 34.1082C72.4286 34.3653 72.376 34.5933 72.2709 34.7922C72.1658 34.991 72.0046 35.1473 71.7872 35.2609C71.5699 35.3731 71.2922 35.4292 70.9541 35.4292H69.761V34.952H70.9371C71.1701 34.952 71.3576 34.9179 71.4996 34.8497C71.6431 34.7815 71.7468 34.6849 71.8107 34.5599C71.876 34.4335 71.9087 34.2829 71.9087 34.1082C71.9087 33.9335 71.876 33.7808 71.8107 33.6501C71.7453 33.5194 71.6409 33.4186 71.4975 33.3476C71.354 33.2751 71.1644 33.2389 70.9286 33.2389H69.9996V37.1338H69.4712ZM71.5252 35.1736L72.599 37.1338H71.9854L70.9286 35.1736H71.5252Z" fill="#0D3EA0"/>
<path d="M74.0235 32.7702V37.1338H73.4951V32.7702H74.0235Z" fill="#0D3EA0"/>
<path d="M78.9508 34.952C78.9508 35.4122 78.8677 35.8099 78.7015 36.1452C78.5353 36.4804 78.3073 36.7389 78.0176 36.9207C77.7278 37.1025 77.3968 37.1934 77.0247 37.1934C76.6525 37.1934 76.3215 37.1025 76.0318 36.9207C75.742 36.7389 75.514 36.4804 75.3478 36.1452C75.1816 35.8099 75.0985 35.4122 75.0985 34.952C75.0985 34.4917 75.1816 34.094 75.3478 33.7588C75.514 33.4236 75.742 33.165 76.0318 32.9832C76.3215 32.8014 76.6525 32.7105 77.0247 32.7105C77.3968 32.7105 77.7278 32.8014 78.0176 32.9832C78.3073 33.165 78.5353 33.4236 78.7015 33.7588C78.8677 34.094 78.9508 34.4917 78.9508 34.952ZM78.4394 34.952C78.4394 34.5741 78.3762 34.2552 78.2498 33.9953C78.1248 33.7354 77.9551 33.5386 77.7406 33.4051C77.5275 33.2716 77.2889 33.2048 77.0247 33.2048C76.7605 33.2048 76.5211 33.2716 76.3066 33.4051C76.0935 33.5386 75.9238 33.7354 75.7974 33.9953C75.6724 34.2552 75.6099 34.5741 75.6099 34.952C75.6099 35.3298 75.6724 35.6487 75.7974 35.9086C75.9238 36.1686 76.0935 36.3653 76.3066 36.4988C76.5211 36.6324 76.7605 36.6991 77.0247 36.6991C77.2889 36.6991 77.5275 36.6324 77.7406 36.4988C77.9551 36.3653 78.1248 36.1686 78.2498 35.9086C78.3762 35.6487 78.4394 35.3298 78.4394 34.952Z" fill="#0D3EA0"/>
<path d="M85.4101 34.1338H84.8817C84.8505 33.9818 84.7958 33.8483 84.7177 33.7332C84.641 33.6182 84.5472 33.5216 84.4364 33.4434C84.3271 33.3639 84.2056 33.3042 84.0721 33.2645C83.9386 33.2247 83.7994 33.2048 83.6545 33.2048C83.3903 33.2048 83.1509 33.2716 82.9364 33.4051C82.7234 33.5386 82.5536 33.7354 82.4272 33.9953C82.3022 34.2552 82.2397 34.5741 82.2397 34.952C82.2397 35.3298 82.3022 35.6487 82.4272 35.9086C82.5536 36.1686 82.7234 36.3653 82.9364 36.4988C83.1509 36.6324 83.3903 36.6991 83.6545 36.6991C83.7994 36.6991 83.9386 36.6792 84.0721 36.6395C84.2056 36.5997 84.3271 36.5407 84.4364 36.4626C84.5472 36.3831 84.641 36.2858 84.7177 36.1707C84.7958 36.0542 84.8505 35.9207 84.8817 35.7702H85.4101C85.3704 35.9932 85.2979 36.1927 85.1928 36.3689C85.0877 36.545 84.957 36.6949 84.8008 36.8184C84.6445 36.9406 84.4691 37.0336 84.2745 37.0976C84.0813 37.1615 83.8746 37.1934 83.6545 37.1934C83.2823 37.1934 82.9513 37.1025 82.6616 36.9207C82.3718 36.7389 82.1438 36.4804 81.9776 36.1452C81.8114 35.8099 81.7283 35.4122 81.7283 34.952C81.7283 34.4917 81.8114 34.094 81.9776 33.7588C82.1438 33.4236 82.3718 33.165 82.6616 32.9832C82.9513 32.8014 83.2823 32.7105 83.6545 32.7105C83.8746 32.7105 84.0813 32.7425 84.2745 32.8064C84.4691 32.8703 84.6445 32.964 84.8008 33.0876C84.957 33.2098 85.0877 33.3589 85.1928 33.5351C85.2979 33.7098 85.3704 33.9094 85.4101 34.1338Z" fill="#0D3EA0"/>
<path d="M90.1318 34.952C90.1318 35.4122 90.0487 35.8099 89.8825 36.1452C89.7164 36.4804 89.4884 36.7389 89.1986 36.9207C88.9088 37.1025 88.5779 37.1934 88.2057 37.1934C87.8335 37.1934 87.5026 37.1025 87.2128 36.9207C86.923 36.7389 86.695 36.4804 86.5289 36.1452C86.3627 35.8099 86.2796 35.4122 86.2796 34.952C86.2796 34.4917 86.3627 34.094 86.5289 33.7588C86.695 33.4236 86.923 33.165 87.2128 32.9832C87.5026 32.8014 87.8335 32.7105 88.2057 32.7105C88.5779 32.7105 88.9088 32.8014 89.1986 32.9832C89.4884 33.165 89.7164 33.4236 89.8825 33.7588C90.0487 34.094 90.1318 34.4917 90.1318 34.952ZM89.6205 34.952C89.6205 34.5741 89.5573 34.2552 89.4308 33.9953C89.3058 33.7354 89.1361 33.5386 88.9216 33.4051C88.7085 33.2716 88.4699 33.2048 88.2057 33.2048C87.9415 33.2048 87.7022 33.2716 87.4877 33.4051C87.2746 33.5386 87.1049 33.7354 86.9784 33.9953C86.8534 34.2552 86.7909 34.5741 86.7909 34.952C86.7909 35.3298 86.8534 35.6487 86.9784 35.9086C87.1049 36.1686 87.2746 36.3653 87.4877 36.4988C87.7022 36.6324 87.9415 36.6991 88.2057 36.6991C88.4699 36.6991 88.7085 36.6324 88.9216 36.4988C89.1361 36.3653 89.3058 36.1686 89.4308 35.9086C89.5573 35.6487 89.6205 35.3298 89.6205 34.952Z" fill="#0D3EA0"/>
<path d="M91.2063 32.7702H91.837L93.32 36.3923H93.3711L94.8541 32.7702H95.4847V37.1338H94.9904V33.8184H94.9478L93.5842 37.1338H93.1069L91.7433 33.8184H91.7007V37.1338H91.2063V32.7702Z" fill="#0D3EA0"/>
<path d="M99.5939 32.7702H100.122V35.6594C100.122 35.9577 100.052 36.224 99.9113 36.4584C99.7721 36.6913 99.5754 36.8753 99.3211 37.0102C99.0669 37.1437 98.7686 37.2105 98.4262 37.2105C98.0839 37.2105 97.7856 37.1437 97.5314 37.0102C97.2771 36.8753 97.0797 36.6913 96.939 36.4584C96.7998 36.224 96.7302 35.9577 96.7302 35.6594V32.7702H97.2586V35.6167C97.2586 35.8298 97.3055 36.0194 97.3993 36.1856C97.493 36.3504 97.6265 36.4804 97.7998 36.5755C97.9745 36.6693 98.1833 36.7162 98.4262 36.7162C98.6691 36.7162 98.878 36.6693 99.0527 36.5755C99.2274 36.4804 99.3609 36.3504 99.4532 36.1856C99.547 36.0194 99.5939 35.8298 99.5939 35.6167V32.7702Z" fill="#0D3EA0"/>
<path d="M101.363 32.7702H101.994L103.477 36.3923H103.528L105.011 32.7702H105.642V37.1338H105.148V33.8184H105.105L103.741 37.1338H103.264L101.9 33.8184H101.858V37.1338H101.363V32.7702Z" fill="#0D3EA0"/>
<path d="M110.107 37.1338H108.761V32.7702H110.167C110.59 32.7702 110.953 32.8575 111.254 33.0322C111.555 33.2055 111.786 33.4548 111.946 33.7801C112.107 34.104 112.187 34.4917 112.187 34.9434C112.187 35.398 112.106 35.7893 111.944 36.1175C111.782 36.4442 111.546 36.6956 111.237 36.8717C110.927 37.0464 110.551 37.1338 110.107 37.1338ZM109.289 36.665H110.073C110.434 36.665 110.733 36.5954 110.97 36.4562C111.208 36.317 111.384 36.1189 111.501 35.8618C111.617 35.6047 111.676 35.2986 111.676 34.9434C111.676 34.5912 111.618 34.2879 111.503 34.0336C111.388 33.778 111.216 33.5819 110.987 33.4456C110.759 33.3078 110.474 33.2389 110.133 33.2389H109.289V36.665Z" fill="#0D3EA0"/>
<path d="M116.941 34.952C116.941 35.4122 116.858 35.8099 116.692 36.1452C116.526 36.4804 116.298 36.7389 116.008 36.9207C115.718 37.1025 115.387 37.1934 115.015 37.1934C114.643 37.1934 114.312 37.1025 114.022 36.9207C113.732 36.7389 113.504 36.4804 113.338 36.1452C113.172 35.8099 113.089 35.4122 113.089 34.952C113.089 34.4917 113.172 34.094 113.338 33.7588C113.504 33.4236 113.732 33.165 114.022 32.9832C114.312 32.8014 114.643 32.7105 115.015 32.7105C115.387 32.7105 115.718 32.8014 116.008 32.9832C116.298 33.165 116.526 33.4236 116.692 33.7588C116.858 34.094 116.941 34.4917 116.941 34.952ZM116.43 34.952C116.43 34.5741 116.367 34.2552 116.24 33.9953C116.115 33.7354 115.945 33.5386 115.731 33.4051C115.518 33.2716 115.279 33.2048 115.015 33.2048C114.751 33.2048 114.511 33.2716 114.297 33.4051C114.084 33.5386 113.914 33.7354 113.788 33.9953C113.663 34.2552 113.6 34.5741 113.6 34.952C113.6 35.3298 113.663 35.6487 113.788 35.9086C113.914 36.1686 114.084 36.3653 114.297 36.4988C114.511 36.6324 114.751 36.6991 115.015 36.6991C115.279 36.6991 115.518 36.6324 115.731 36.4988C115.945 36.3653 116.115 36.1686 116.24 35.9086C116.367 35.6487 116.43 35.3298 116.43 34.952Z" fill="#0D3EA0"/>
<path d="M119.889 37.1338V32.7702H121.415C121.719 32.7702 121.969 32.8227 122.167 32.9278C122.364 33.0315 122.511 33.1714 122.608 33.3476C122.705 33.5223 122.753 33.7162 122.753 33.9292C122.753 34.1167 122.719 34.2716 122.653 34.3937C122.587 34.5159 122.501 34.6125 122.393 34.6835C122.286 34.7545 122.17 34.8071 122.045 34.8412V34.8838C122.179 34.8923 122.313 34.9392 122.448 35.0244C122.583 35.1096 122.696 35.2318 122.787 35.3909C122.878 35.55 122.923 35.7446 122.923 35.9747C122.923 36.1934 122.874 36.3902 122.774 36.5649C122.675 36.7396 122.518 36.8781 122.303 36.9804C122.089 37.0827 121.81 37.1338 121.466 37.1338H119.889ZM120.418 36.665H121.466C121.811 36.665 122.056 36.5983 122.201 36.4648C122.347 36.3298 122.42 36.1665 122.42 35.9747C122.42 35.827 122.383 35.6906 122.308 35.5656C122.232 35.4392 122.125 35.3383 121.986 35.263C121.847 35.1863 121.682 35.148 121.491 35.148H120.418V36.665ZM120.418 34.6878H121.398C121.557 34.6878 121.7 34.6565 121.828 34.594C121.957 34.5315 122.06 34.4434 122.135 34.3298C122.212 34.2162 122.25 34.0827 122.25 33.9292C122.25 33.7375 122.183 33.5748 122.05 33.4413C121.916 33.3064 121.705 33.2389 121.415 33.2389H120.418V34.6878Z" fill="#0D3EA0"/>
<path d="M123.978 37.1338V32.7702H125.452C125.793 32.7702 126.073 32.8284 126.291 32.9449C126.51 33.0599 126.672 33.2183 126.777 33.42C126.882 33.6217 126.935 33.8511 126.935 34.1082C126.935 34.3653 126.882 34.5933 126.777 34.7922C126.672 34.991 126.511 35.1473 126.294 35.2609C126.076 35.3731 125.799 35.4292 125.46 35.4292H124.267V34.952H125.443C125.676 34.952 125.864 34.9179 126.006 34.8497C126.149 34.7815 126.253 34.6849 126.317 34.5599C126.382 34.4335 126.415 34.2829 126.415 34.1082C126.415 33.9335 126.382 33.7808 126.317 33.6501C126.252 33.5194 126.147 33.4186 126.004 33.3476C125.86 33.2751 125.671 33.2389 125.435 33.2389H124.506V37.1338H123.978ZM126.032 35.1736L127.105 37.1338H126.492L125.435 35.1736H126.032Z" fill="#0D3EA0"/>
<path d="M128.18 37.1338H127.626L129.229 32.7702H129.774L131.376 37.1338H130.822L129.518 33.4605H129.484L128.18 37.1338ZM128.385 35.4292H130.618V35.898H128.385V35.4292Z" fill="#0D3EA0"/>
<path d="M134.628 33.8611C134.603 33.6452 134.499 33.4775 134.317 33.3582C134.136 33.2389 133.913 33.1792 133.648 33.1792C133.455 33.1792 133.286 33.2105 133.141 33.273C132.998 33.3355 132.886 33.4214 132.805 33.5308C132.725 33.6402 132.685 33.7645 132.685 33.9037C132.685 34.0202 132.713 34.1203 132.768 34.2041C132.825 34.2865 132.898 34.3554 132.986 34.4108C133.074 34.4648 133.166 34.5095 133.263 34.545C133.359 34.5791 133.448 34.6068 133.529 34.6281L133.972 34.7474C134.086 34.7773 134.212 34.8184 134.351 34.871C134.492 34.9236 134.626 34.9953 134.754 35.0862C134.883 35.1757 134.99 35.2907 135.074 35.4314C135.158 35.572 135.199 35.7446 135.199 35.9491C135.199 36.1849 135.138 36.398 135.014 36.5883C134.892 36.7787 134.713 36.93 134.477 37.0422C134.243 37.1544 133.958 37.2105 133.623 37.2105C133.31 37.2105 133.04 37.1601 132.811 37.0592C132.584 36.9584 132.405 36.8177 132.274 36.6373C132.145 36.4569 132.072 36.2474 132.055 36.0088H132.6C132.614 36.1736 132.67 36.3099 132.766 36.4179C132.864 36.5244 132.988 36.604 133.137 36.6565C133.288 36.7077 133.449 36.7332 133.623 36.7332C133.824 36.7332 134.006 36.7005 134.166 36.6352C134.327 36.5684 134.454 36.4761 134.548 36.3582C134.641 36.2389 134.688 36.0997 134.688 35.9406C134.688 35.7957 134.648 35.6778 134.567 35.5869C134.486 35.496 134.379 35.4221 134.247 35.3653C134.115 35.3085 133.972 35.2588 133.819 35.2162L133.282 35.0628C132.941 34.9648 132.671 34.8248 132.472 34.643C132.273 34.4612 132.174 34.2233 132.174 33.9292C132.174 33.6849 132.24 33.4719 132.372 33.29C132.506 33.1068 132.685 32.9648 132.909 32.8639C133.135 32.7616 133.387 32.7105 133.665 32.7105C133.947 32.7105 134.197 32.7609 134.415 32.8618C134.634 32.9612 134.807 33.0976 134.935 33.2709C135.065 33.4442 135.133 33.6409 135.14 33.8611H134.628Z" fill="#0D3EA0"/>
<path d="M136.783 32.7702V37.1338H136.254V32.7702H136.783Z" fill="#0D3EA0"/>
<path d="M138.028 37.1338V32.7702H138.557V36.665H140.585V37.1338H138.028Z" fill="#0D3EA0"/>
<path d="M42.9621 5.55424C45.7616 5.55424 47.996 6.18892 49.6653 7.45826C51.352 8.72761 52.1953 11.0663 52.1953 14.4744C52.1953 17.813 51.3694 20.1691 49.7175 21.5428C48.0656 22.8991 45.9703 23.5772 43.4316 23.5772H38.5281V5.55424H42.9621ZM41.971 8.13641V20.9951H43.6664C45.1965 20.9951 46.3963 20.5256 47.2657 19.5866C48.1351 18.6302 48.5699 16.9262 48.5699 14.4744C48.5699 12.7704 48.3438 11.4576 47.8917 10.536C47.457 9.59702 46.8745 8.96235 46.1442 8.63197C45.4313 8.3016 44.5705 8.13641 43.562 8.13641H41.971Z" fill="black"/>
<path d="M66.9172 16.3524C66.9172 16.5263 66.8911 16.9784 66.839 17.7087H58.1796C58.2839 19.0476 58.6317 20.0039 59.2229 20.5777C59.8141 21.1515 60.5966 21.4385 61.5703 21.4385C62.1789 21.4385 62.7527 21.3428 63.2918 21.1515C63.8308 20.9429 64.4046 20.6299 65.0132 20.2126L66.3956 22.1166C64.8654 23.3512 63.1614 23.9685 61.2834 23.9685C59.1794 23.9685 57.5536 23.3251 56.406 22.0383C55.2758 20.7516 54.7106 18.9954 54.7106 16.7697C54.7106 15.3612 54.9541 14.1006 55.4409 12.9877C55.9278 11.8575 56.632 10.9794 57.5536 10.3534C58.4752 9.71005 59.5707 9.38836 60.84 9.38836C62.7701 9.38836 64.2655 10.0056 65.3262 11.2402C66.3869 12.4574 66.9172 14.1615 66.9172 16.3524ZM63.6048 15.3873C63.6048 12.9704 62.7093 11.7619 60.9183 11.7619C60.101 11.7619 59.4576 12.0662 58.9882 12.6748C58.5361 13.266 58.2665 14.2223 58.1796 15.5438H63.6048V15.3873Z" fill="black"/>
<path d="M77.3196 9.38836C79.0585 9.38836 80.3452 10.023 81.1798 11.2924C82.0145 12.5617 82.4318 14.344 82.4318 16.6393C82.4318 18.0651 82.2144 19.3345 81.7797 20.4473C81.3624 21.5428 80.7364 22.4035 79.9018 23.0295C79.0845 23.6555 78.1108 23.9685 76.9806 23.9685C75.5199 23.9685 74.3636 23.4642 73.5116 22.4557V28.898L70.173 29.2632V9.7796H73.0943L73.2769 11.475C73.8159 10.7794 74.4332 10.2578 75.1287 9.91001C75.8242 9.56225 76.5546 9.38836 77.3196 9.38836ZM76.0416 21.4124C77.9717 21.4124 78.9367 19.83 78.9367 16.6654C78.9367 14.9787 78.7194 13.7615 78.2847 13.0138C77.85 12.2661 77.1979 11.8923 76.3285 11.8923C75.7721 11.8923 75.2504 12.0662 74.7636 12.4139C74.2767 12.7443 73.8594 13.1964 73.5116 13.7702V19.9778C74.155 20.9342 74.9983 21.4124 76.0416 21.4124Z" fill="black"/>
<path d="M91.6051 9.38836C93.6395 9.38836 95.2218 10.0404 96.3521 11.3445C97.4997 12.6313 98.0735 14.4049 98.0735 16.6654C98.0735 18.1086 97.8127 19.3866 97.291 20.4995C96.7694 21.5949 96.0217 22.447 95.048 23.0556C94.0742 23.6642 92.9179 23.9685 91.579 23.9685C89.5446 23.9685 87.9535 23.3251 86.8059 22.0383C85.6583 20.7342 85.0845 18.9432 85.0845 16.6654C85.0845 15.2221 85.3453 13.9528 85.8669 12.8573C86.3886 11.7619 87.1363 10.9098 88.11 10.3012C89.1012 9.69266 90.2662 9.38836 91.6051 9.38836ZM91.6051 11.9184C89.6054 11.9184 88.6056 13.5007 88.6056 16.6654C88.6056 18.2999 88.849 19.5084 89.3359 20.2908C89.8402 21.0559 90.5879 21.4385 91.579 21.4385C92.5701 21.4385 93.3091 21.0472 93.796 20.2647C94.3003 19.4823 94.5524 18.2825 94.5524 16.6654C94.5524 15.0483 94.3003 13.8572 93.796 13.0921C93.3091 12.3096 92.5788 11.9184 91.6051 11.9184Z" fill="black"/>
<path d="M105.82 9.38836C107.68 9.38836 109.315 9.93609 110.723 11.0316L109.419 12.9877C108.237 12.24 107.08 11.8662 105.95 11.8662C105.289 11.8662 104.776 11.9966 104.411 12.2574C104.046 12.5009 103.863 12.8312 103.863 13.2486C103.863 13.5616 103.942 13.8224 104.098 14.031C104.255 14.2397 104.533 14.4397 104.933 14.6309C105.35 14.8048 105.959 15.0048 106.759 15.2308C108.254 15.6308 109.358 16.1611 110.071 16.8219C110.801 17.4826 111.166 18.4042 111.166 19.5866C111.166 20.9603 110.61 22.0383 109.497 22.8208C108.384 23.5859 107.002 23.9685 105.35 23.9685C104.22 23.9685 103.185 23.7946 102.246 23.4468C101.325 23.099 100.525 22.6209 99.8467 22.0123L101.516 20.1343C102.716 21.0385 103.968 21.4906 105.272 21.4906C106.02 21.4906 106.611 21.3428 107.045 21.0472C107.498 20.7516 107.724 20.343 107.724 19.8213C107.724 19.4214 107.637 19.1084 107.463 18.8824C107.306 18.6389 107.011 18.4303 106.576 18.2564C106.159 18.0651 105.498 17.8391 104.594 17.5783C103.185 17.1957 102.151 16.6654 101.49 15.9872C100.829 15.2917 100.499 14.431 100.499 13.4051C100.499 12.64 100.716 11.9531 101.151 11.3445C101.603 10.736 102.229 10.2578 103.029 9.91001C103.846 9.56225 104.776 9.38836 105.82 9.38836Z" fill="black"/>
<path d="M117.468 9.7796V23.5772H114.129V9.7796H117.468ZM115.772 2.78951C116.398 2.78951 116.903 2.98947 117.285 3.3894C117.685 3.77194 117.885 4.25012 117.885 4.82394C117.885 5.39775 117.685 5.87593 117.285 6.25847C116.903 6.64101 116.398 6.83228 115.772 6.83228C115.164 6.83228 114.659 6.64101 114.26 6.25847C113.877 5.87593 113.686 5.39775 113.686 4.82394C113.686 4.25012 113.877 3.77194 114.26 3.3894C114.659 2.98947 115.164 2.78951 115.772 2.78951Z" fill="black"/>
<path d="M129.654 22.9252C129.167 23.2729 128.619 23.5337 128.011 23.7076C127.42 23.8815 126.811 23.9685 126.185 23.9685C124.829 23.9511 123.794 23.5685 123.081 22.8208C122.386 22.0557 122.038 20.9342 122.038 19.4562V12.1792H119.873V9.7796H122.038V6.72795L125.377 6.33672V9.7796H128.585L128.246 12.1792H125.377V19.3779C125.377 20.0561 125.49 20.543 125.716 20.8386C125.959 21.1342 126.333 21.282 126.837 21.282C127.341 21.282 127.889 21.1168 128.48 20.7864L129.654 22.9252Z" fill="black"/>
<path d="M141.736 19.9257C141.736 20.4647 141.815 20.8646 141.971 21.1255C142.145 21.3689 142.414 21.5602 142.78 21.6993L142.075 23.9163C141.293 23.8467 140.65 23.6555 140.145 23.3425C139.658 23.0295 139.285 22.5513 139.024 21.9079C138.554 22.6035 137.963 23.1251 137.25 23.4729C136.555 23.8033 135.772 23.9685 134.903 23.9685C133.529 23.9685 132.442 23.5772 131.642 22.7947C130.843 22.0123 130.443 20.9864 130.443 19.717C130.443 18.2216 130.982 17.0827 132.06 16.3002C133.155 15.5003 134.711 15.1004 136.729 15.1004H138.45V14.3179C138.45 13.4311 138.241 12.8139 137.824 12.4661C137.424 12.1009 136.772 11.9184 135.868 11.9184C134.859 11.9184 133.642 12.1618 132.216 12.6487L131.434 10.3795C133.155 9.71874 134.824 9.38836 136.442 9.38836C139.971 9.38836 141.736 10.9707 141.736 14.1354V19.9257ZM135.79 21.5428C136.92 21.5428 137.807 20.9777 138.45 19.8474V17.0566H137.068C134.911 17.0566 133.833 17.8565 133.833 19.4562C133.833 20.1169 133.999 20.6299 134.329 20.9951C134.659 21.3602 135.146 21.5428 135.79 21.5428Z" fill="black"/>
</svg>
