<svg width="31" height="40" viewBox="0 0 31 40" fill="none" xmlns="http://www.w3.org/2000/svg">
<path d="M8.65631 20.2957C8.01747 19.6566 8.01747 18.6218 8.65631 17.983C8.91525 17.6014 9.33092 17.4446 9.75342 17.4446C10.1759 17.4446 10.5916 17.6014 10.9098 17.9264L13.5694 20.586V1.63543C13.5694 0.732538 14.302 0 15.2049 0C16.1078 0 16.8403 0.732538 16.8403 1.63543V20.586L19.5592 17.983C20.1984 17.3441 21.2331 17.3438 21.872 17.983C22.5108 18.6221 22.5108 19.6569 21.872 20.2957L16.4205 25.7472C15.7814 26.386 14.7466 26.386 14.1078 25.7472L8.65631 20.2957Z" fill="#0F49BD"/>
<path fill-rule="evenodd" clip-rule="evenodd" d="M8.79046 5.11073C9.69369 5.11073 10.4259 5.84294 10.4259 6.74617C10.4259 7.64939 9.69369 8.3816 8.79046 8.3816H5.45145C4.24736 8.3816 3.27087 9.35809 3.27087 10.5622V29.5528C3.93867 29.2589 4.67598 29.0971 5.45145 29.0971H27.2572V8.3816H21.7377C20.8344 8.3816 20.1022 7.64939 20.1022 6.74617C20.1022 5.84294 20.8344 5.11073 21.7377 5.11073H27.2572C29.063 5.11073 30.5281 6.57786 30.5281 8.3816V29.0971C30.5281 30.5145 29.615 31.7138 28.3475 32.167V36.7291H28.8927C29.7956 36.7291 30.5281 37.4617 30.5281 38.3646C30.5281 39.2675 29.7956 40 28.8927 40H5.45145C2.44088 40 0 37.5605 0 34.5485V10.5622C0 7.55162 2.44088 5.11073 5.45145 5.11073H8.79046ZM3.27087 34.5485C3.27087 33.3451 4.2494 32.368 5.45145 32.368H25.0767V36.7291H5.45145C4.2494 36.7291 3.27087 35.752 3.27087 34.5485Z" fill="#0F49BD"/>
</svg>
