<svg width="1149" height="686" viewBox="0 0 1149 686" fill="none" xmlns="http://www.w3.org/2000/svg">
<rect x="428" y="78" width="162" height="171" stroke="#0F49BD" stroke-width="2"/>
<path d="M803.001 262.033L809.967 476H390V44H809.968L803.001 261.968L802.999 262L803.001 262.033Z" stroke="#0F49BD" stroke-width="2"/>
<path d="M625 97H758" stroke="#0F49BD" stroke-width="2"/>
<path d="M625 125H758" stroke="#0F49BD" stroke-width="2"/>
<path d="M625 179H725" stroke="#0F49BD" stroke-width="2"/>
<path d="M625 210H725" stroke="#0F49BD" stroke-width="2"/>
<path d="M428 290L758 290" stroke="#0F49BD" stroke-width="2"/>
<path d="M428 322L758 322" stroke="#0F49BD" stroke-width="2"/>
<path d="M428 354L758 354" stroke="#0F49BD" stroke-width="2"/>
<path d="M428 386L758 386" stroke="#0F49BD" stroke-width="2"/>
<circle cx="508.5" cy="135.5" r="30.5" stroke="#0F49BD" stroke-width="2"/>
<path d="M461.01 215C461.543 188.952 482.824 168 509 168H510C536.176 168 557.457 188.952 557.99 215H461.01Z" stroke="#0F49BD" stroke-width="2"/>
<path d="M428 418L758 418" stroke="#0F49BD" stroke-width="2"/>
<path d="M158 280.5C227 208 314 277.5 255 314C227.027 331.306 223 257.5 279.5 239C336 220.5 355.5 241 360 268.5C361.882 280 339 293 331 264.5C324.546 241.509 316 179 368 185" stroke="#0F49BD" stroke-width="2" stroke-dasharray="7 7"/>
<path d="M193.677 351.323L415.29 313.004L427.145 404.783L427.151 404.826L427.16 404.868L446.81 495.299L225.197 533.618L214.317 441.681L214.311 441.628L214.299 441.576L193.677 351.323Z" fill="#FEFEFE" stroke="#0F49BD" stroke-width="2"/>
<path d="M236.138 388.622L389.857 362.042" stroke="#0F49BD" stroke-width="2"/>
<path d="M239.932 420.396L393.651 393.816" stroke="#0F49BD" stroke-width="2"/>
<path d="M243.845 453.163L397.564 426.584" stroke="#0F49BD" stroke-width="2"/>
<path d="M247.64 484.937L401.359 458.358" stroke="#0F49BD" stroke-width="2"/>
<rect x="1021.12" y="223.568" width="119.083" height="66.334" transform="rotate(-7.45282 1021.12 223.568)" fill="#FEFEFE" stroke="#0F49BD" stroke-width="2"/>
<path d="M1111.26 250.558L1146.17 274.108L1031.41 289.12L1060.45 256.82C1073.45 242.35 1095.13 239.678 1111.26 250.558Z" fill="#FEFEFE" stroke="#0F49BD" stroke-width="2"/>
<path d="M1057.78 246.719L1022.77 223.352L1137.49 208.345L1108.31 240.492C1095.33 254.79 1073.84 257.439 1057.78 246.719Z" fill="#FEFEFE" stroke="#0F49BD" stroke-width="2"/>
<rect x="1" y="234" width="143" height="87" fill="#FEFEFE" stroke="#0F49BD" stroke-width="2"/>
<path d="M42 362H102" stroke="#0F49BD" stroke-width="2"/>
<path d="M72 322L72 361" stroke="#0F49BD" stroke-width="2"/>
<circle cx="477" cy="11" r="10" fill="#FEFEFE" stroke="#0F49BD" stroke-width="2"/>
<circle cx="22" cy="425" r="10" transform="rotate(-90 22 425)" fill="#FEFEFE" stroke="#0F49BD" stroke-width="2"/>
<circle cx="977" cy="39" r="4" fill="#FEFEFE" stroke="#0F49BD" stroke-width="2"/>
<circle cx="817" cy="525" r="16" fill="#FEFEFE" stroke="#0F49BD" stroke-width="2"/>
<circle cx="875" cy="403" r="8" fill="#FEFEFE" stroke="#0F49BD" stroke-width="2"/>
<path d="M715.205 57.5125L984.829 83.8003L961.737 223.432L961.726 223.499L961.724 223.566L957.753 361.483L688.131 335.196L705.636 196.379L705.64 196.351L705.642 196.323L715.205 57.5125Z" fill="#FEFEFE" stroke="#0F49BD" stroke-width="2"/>
<path d="M851.629 111.003L947.176 120.319" stroke="#0F49BD" stroke-width="2"/>
<path d="M848.912 138.871L944.459 148.187" stroke="#0F49BD" stroke-width="2"/>
<path d="M846.68 161.763L942.227 171.078" stroke="#0F49BD" stroke-width="2"/>
<path d="M843.963 189.63L939.51 198.946" stroke="#0F49BD" stroke-width="2"/>
<path d="M741.524 209.785L936.599 228.805" stroke="#0F49BD" stroke-width="2"/>
<path d="M738.419 241.634L933.494 260.654" stroke="#0F49BD" stroke-width="2"/>
<path d="M735.314 273.483L930.389 292.503" stroke="#0F49BD" stroke-width="2"/>
<path d="M732.208 305.332L927.284 324.352" stroke="#0F49BD" stroke-width="2"/>
<rect x="748.217" y="99.9161" width="83" height="88" transform="rotate(5.56862 748.217 99.9161)" stroke="#0F49BD" stroke-width="2"/>
<circle cx="787.011" cy="134.845" r="16" transform="rotate(5.56862 787.011 134.845)" stroke="#0F49BD" stroke-width="2"/>
<path d="M758.073 174.223C759.89 160.993 771.856 151.453 785.264 152.76L786.259 152.857C799.668 154.165 809.565 165.837 808.793 179.168L758.073 174.223Z" stroke="#0F49BD" stroke-width="2"/>
<rect x="955.856" y="374.513" width="75.5111" height="36.4" transform="rotate(15 955.856 374.513)" stroke="#0F49BD" stroke-width="2"/>
<path d="M988.739 400.418L1024.52 410.005L1011.97 456.842L934.225 436.01L949.351 379.557L990.349 390.542L988.031 399.193L987.773 400.159L988.739 400.418Z" fill="#FEFEFE" stroke="#0F49BD" stroke-width="2"/>
<path d="M1004 151.468C1029.5 121.968 1075 121.968 1068.5 155.968V155.968C1062.12 189.329 1021.38 140.689 1048.35 120.047C1057.52 113.026 1067.54 109.937 1075 113.468C1123.37 136.381 1097.83 185.135 1084.5 201.468" stroke="#0F49BD" stroke-width="2" stroke-dasharray="4 4"/>
<path d="M1091 301C1091 354 1002.2 304.2 1007 365" stroke="#0F49BD" stroke-width="2" stroke-dasharray="4 4"/>
<path d="M355 531C377 595.667 442 707.4 526 637C605.653 570.243 666.423 539.274 617.078 513.226C611.227 510.137 604.746 508.116 598.175 507.338C546.448 501.215 534 544.054 534 578C534 658.498 621 734 709 643C844.027 503.37 969 661 948 468" stroke="#0F49BD" stroke-width="2" stroke-dasharray="4 4"/>
<path d="M66.9999 386C52.9998 468 155 386 185 457" stroke="#0F49BD" stroke-width="2" stroke-dasharray="4 4"/>
<circle cx="400.145" cy="317.145" r="50.1447" fill="#FEFEFE" stroke="#0F49BD" stroke-width="2"/>
<path d="M436.43 353.43L507.618 424.618" stroke="#0F49BD" stroke-width="2"/>
</svg>
