<svg width="1144" height="686" viewBox="0 0 1144 686" fill="none" xmlns="http://www.w3.org/2000/svg">
<path d="M590 78H428V249H590V78Z" stroke="#0F49BD" stroke-width="2"/>
<path d="M809.968 44L803.001 261.968L802.999 262L803.001 262.032L809.968 476H390V44H809.968Z" stroke="#0F49BD" stroke-width="2"/>
<path d="M625 97H758" stroke="#0F49BD" stroke-width="2"/>
<path d="M625 125H758" stroke="#0F49BD" stroke-width="2"/>
<path d="M625 179H725" stroke="#0F49BD" stroke-width="2"/>
<path d="M625 210H725" stroke="#0F49BD" stroke-width="2"/>
<path d="M428 290H758" stroke="#0F49BD" stroke-width="2"/>
<path d="M428 322H758" stroke="#0F49BD" stroke-width="2"/>
<path d="M428 354H758" stroke="#0F49BD" stroke-width="2"/>
<path d="M428 386H758" stroke="#0F49BD" stroke-width="2"/>
<path d="M428 418H758" stroke="#0F49BD" stroke-width="2"/>
<path d="M158 280.5C227 208 314 277.5 255 314C227.027 331.306 223 257.5 279.5 239C336 220.5 355.5 241 360 268.5C361.882 280 339 293 331 264.5C324.546 241.509 316 179 368 185" stroke="#0F49BD" stroke-width="2" stroke-dasharray="7 7"/>
<path d="M415.289 313.004L427.145 404.783L427.15 404.826L427.16 404.868L446.81 495.299L225.198 533.618L214.318 441.681L214.311 441.628L214.3 441.575L193.677 351.323L415.289 313.004Z" fill="#FEFEFE" stroke="#0F49BD" stroke-width="2"/>
<path d="M236.138 388.622L389.857 362.042" stroke="#0F49BD" stroke-width="2"/>
<path d="M239.933 420.396L393.652 393.816" stroke="#0F49BD" stroke-width="2"/>
<path d="M243.846 453.163L397.565 426.584" stroke="#0F49BD" stroke-width="2"/>
<path d="M247.64 484.937L401.359 458.358" stroke="#0F49BD" stroke-width="2"/>
<path d="M144 234H1V321H144V234Z" fill="#FEFEFE" stroke="#0F49BD" stroke-width="2"/>
<path d="M1128.7 201.246L1133.87 241.293V241.313L1133.88 241.331L1142.45 280.79L1045.75 297.51L1041 257.393V257.371V257.348L1032 217.967L1128.7 201.246Z" fill="#FEFEFE" stroke="#0F49BD" stroke-width="0.872693"/>
<path d="M1050.52 234.242L1117.6 222.644" stroke="#0F49BD" stroke-width="0.872693"/>
<path d="M1052.18 248.106L1119.25 236.508" stroke="#0F49BD" stroke-width="0.872693"/>
<path d="M1053.89 262.404L1120.96 250.806" stroke="#0F49BD" stroke-width="0.872693"/>
<path d="M1055.54 276.269L1122.62 264.671" stroke="#0F49BD" stroke-width="0.872693"/>
<path d="M42 362H102" stroke="#0F49BD" stroke-width="2"/>
<path d="M72 322V361" stroke="#0F49BD" stroke-width="2"/>
<path d="M477 21C482.523 21 487 16.5228 487 11C487 5.47715 482.523 1 477 1C471.477 1 467 5.47715 467 11C467 16.5228 471.477 21 477 21Z" fill="#FEFEFE" stroke="#0F49BD" stroke-width="2"/>
<path d="M32 425C32 419.477 27.5228 415 22 415C16.4772 415 12 419.477 12 425C12 430.523 16.4772 435 22 435C27.5228 435 32 430.523 32 425Z" fill="#FEFEFE" stroke="#0F49BD" stroke-width="2"/>
<path d="M977 43C979.209 43 981 41.2091 981 39C981 36.7909 979.209 35 977 35C974.791 35 973 36.7909 973 39C973 41.2091 974.791 43 977 43Z" fill="#FEFEFE" stroke="#0F49BD" stroke-width="2"/>
<path d="M817 541C825.837 541 833 533.837 833 525C833 516.163 825.837 509 817 509C808.163 509 801 516.163 801 525C801 533.837 808.163 541 817 541Z" fill="#FEFEFE" stroke="#0F49BD" stroke-width="2"/>
<path d="M875 411C879.418 411 883 407.418 883 403C883 398.582 879.418 395 875 395C870.582 395 867 398.582 867 403C867 407.418 870.582 411 875 411Z" fill="#FEFEFE" stroke="#0F49BD" stroke-width="2"/>
<path d="M984.828 83.8002L961.736 223.432L961.726 223.499L961.723 223.566L957.753 361.483L688.132 335.196L705.636 196.379L705.64 196.351L705.642 196.323L715.205 57.5126L984.828 83.8002Z" fill="#FEFEFE" stroke="#0F49BD" stroke-width="2"/>
<path d="M851.629 111.003L947.176 120.319" stroke="#0F49BD" stroke-width="2"/>
<path d="M848.912 138.871L944.459 148.187" stroke="#0F49BD" stroke-width="2"/>
<path d="M846.68 161.763L942.227 171.078" stroke="#0F49BD" stroke-width="2"/>
<path d="M843.963 189.63L939.51 198.946" stroke="#0F49BD" stroke-width="2"/>
<path d="M741.524 209.785L936.599 228.805" stroke="#0F49BD" stroke-width="2"/>
<path d="M738.419 241.634L933.494 260.654" stroke="#0F49BD" stroke-width="2"/>
<path d="M735.314 273.483L930.389 292.503" stroke="#0F49BD" stroke-width="2"/>
<path d="M732.208 305.332L927.284 324.352" stroke="#0F49BD" stroke-width="2"/>
<path d="M830.825 107.97L748.217 99.9161L739.678 187.501L822.286 195.555L830.825 107.97Z" stroke="#0F49BD" stroke-width="2"/>
<path d="M766.042 108.702L753.904 107.432L746 182.959L758.138 184.23L766.042 108.702Z" fill="#0F49BD"/>
<path d="M776.878 150.286L764.74 149.016L761.023 184.532L773.161 185.802L776.878 150.286Z" fill="#0F49BD"/>
<path d="M793.735 134.325L781.597 133.055L776.045 186.104L788.183 187.374L793.735 134.325Z" fill="#0F49BD"/>
<path d="M810.687 117.465L798.549 116.195L791.068 187.676L803.206 188.947L810.687 117.465Z" fill="#0F49BD"/>
<path d="M819.593 177.481L807.455 176.211L806.091 189.248L818.229 190.519L819.593 177.481Z" fill="#0F49BD"/>
<path d="M1028.79 394.057L955.856 374.513L946.435 409.673L1019.37 429.216L1028.79 394.057Z" stroke="#0F49BD" stroke-width="2"/>
<path d="M990.349 390.542L987.773 400.158L1024.52 410.005L1011.97 456.842L934.225 436.01L949.351 379.557L990.349 390.542Z" fill="#FEFEFE" stroke="#0F49BD" stroke-width="2"/>
<path d="M1004 151.468C1029.5 121.968 1075 121.968 1068.5 155.968C1062.12 189.329 1021.38 140.689 1048.35 120.047C1057.52 113.026 1067.54 109.937 1075 113.468C1123.37 136.381 1097.83 185.135 1084.5 201.468" stroke="#0F49BD" stroke-width="2" stroke-dasharray="4 4"/>
<path d="M1091 301C1091 354 1002.2 304.2 1007 365" stroke="#0F49BD" stroke-width="2" stroke-dasharray="4 4"/>
<path d="M355 531C377 595.667 442 707.4 526 637C605.653 570.243 666.423 539.274 617.078 513.226C611.227 510.137 604.746 508.116 598.175 507.338C546.448 501.215 534 544.054 534 578C534 658.498 621 734 709 643C844.027 503.37 969 661 948 468" stroke="#0F49BD" stroke-width="2" stroke-dasharray="4 4"/>
<path d="M66.9999 386C52.9998 468 155 386 185 457" stroke="#0F49BD" stroke-width="2" stroke-dasharray="4 4"/>
<path d="M400.145 367.29C427.839 367.29 450.29 344.839 450.29 317.145C450.29 289.451 427.839 267 400.145 267C372.451 267 350 289.451 350 317.145C350 344.839 372.451 367.29 400.145 367.29Z" fill="#FEFEFE" stroke="#0F49BD" stroke-width="2"/>
<path d="M436.43 353.43L507.618 424.618" stroke="#0F49BD" stroke-width="2"/>
<path d="M554.014 197.825C575.18 172.688 571.961 135.153 546.825 113.987C521.688 92.8204 484.153 96.0389 462.987 121.175C441.821 146.312 445.039 183.847 470.176 205.013C495.312 226.179 532.848 222.961 554.014 197.825Z" fill="#E6E6E6"/>
<mask id="mask0_1_124" style="mask-type:luminance" maskUnits="userSpaceOnUse" x="518" y="116" width="50" height="44">
<path d="M549.912 116.777C555.523 122.215 560.007 128.705 563.11 135.877C566.212 143.048 567.871 150.76 567.993 158.573L523.373 159.268C523.343 157.315 522.928 155.387 522.153 153.594C521.377 151.801 520.256 150.179 518.853 148.819L549.912 116.777Z" fill="white"/>
</mask>
<g mask="url(#mask0_1_124)">
<path d="M549.912 116.777C555.523 122.215 560.007 128.705 563.11 135.877C566.212 143.048 567.871 150.76 567.993 158.573L523.373 159.268C523.343 157.315 522.928 155.387 522.153 153.594C521.377 151.801 520.256 150.179 518.853 148.819L549.912 116.777Z" fill="#0C378D" stroke="white" stroke-width="1.61905"/>
</g>
<mask id="mask1_1_124" style="mask-type:luminance" maskUnits="userSpaceOnUse" x="519" y="158" width="50" height="44">
<path d="M567.995 158.71C568.099 166.523 566.662 174.28 563.768 181.538C560.874 188.796 556.579 195.413 551.128 201.011L519.157 169.878C520.52 168.478 521.594 166.824 522.317 165.01C523.041 163.195 523.4 161.256 523.374 159.303L567.995 158.71Z" fill="white"/>
</mask>
<g mask="url(#mask1_1_124)">
<path d="M567.995 158.71C568.099 166.523 566.662 174.28 563.768 181.538C560.874 188.796 556.579 195.413 551.128 201.011L519.157 169.878C520.52 168.478 521.594 166.824 522.317 165.01C523.041 163.195 523.4 161.256 523.374 159.303L567.995 158.71Z" fill="#104ABC" stroke="white" stroke-width="1.61905"/>
</g>
<mask id="mask2_1_124" style="mask-type:luminance" maskUnits="userSpaceOnUse" x="507" y="100" width="43" height="49">
<path d="M507.419 100.01C523.197 99.7232 538.443 105.716 549.802 116.67L518.826 148.793C515.986 146.054 512.174 144.556 508.23 144.628L507.419 100.01Z" fill="white"/>
</mask>
<g mask="url(#mask2_1_124)">
<path d="M507.419 100.01C523.197 99.7232 538.443 105.716 549.802 116.67L518.826 148.793C515.986 146.054 512.174 144.556 508.23 144.628L507.419 100.01Z" fill="#08255E" stroke="white" stroke-width="1.61905"/>
</g>
<mask id="mask3_1_124" style="mask-type:luminance" maskUnits="userSpaceOnUse" x="467" y="100" width="43" height="49">
<path d="M467.299 116.573C478.684 105.646 493.943 99.689 509.72 100.013L508.805 144.628C504.861 144.547 501.046 146.037 498.2 148.768L467.299 116.573Z" fill="white"/>
</mask>
<g mask="url(#mask3_1_124)">
<path d="M467.299 116.573C478.684 105.646 493.943 99.689 509.72 100.013L508.805 144.628C504.861 144.547 501.046 146.037 498.2 148.768L467.299 116.573Z" fill="#D0DFFB" stroke="white" stroke-width="1.61905"/>
</g>
<mask id="mask4_1_124" style="mask-type:luminance" maskUnits="userSpaceOnUse" x="508" y="169" width="44" height="50">
<path d="M551.541 200.582C546.146 206.234 539.69 210.769 532.543 213.926C525.396 217.083 517.697 218.802 509.885 218.984L508.846 174.371C510.799 174.326 512.724 173.896 514.511 173.107C516.298 172.317 517.912 171.184 519.26 169.771L551.541 200.582Z" fill="white"/>
</mask>
<g mask="url(#mask4_1_124)">
<path d="M551.541 200.582C546.146 206.234 539.69 210.769 532.543 213.926C525.396 217.083 517.697 218.802 509.885 218.984L508.846 174.371C510.799 174.326 512.724 173.896 514.511 173.107C516.298 172.317 517.912 171.184 519.26 169.771L551.541 200.582Z" fill="#145CEB" stroke="white" stroke-width="1.61905"/>
</g>
<mask id="mask5_1_124" style="mask-type:luminance" maskUnits="userSpaceOnUse" x="467" y="170" width="43" height="50">
<path d="M509.889 218.984C494.113 219.352 478.837 213.438 467.421 202.543L498.23 170.261C501.084 172.985 504.903 174.463 508.847 174.371L509.889 218.984Z" fill="white"/>
</mask>
<g mask="url(#mask5_1_124)">
<path d="M509.889 218.984C494.113 219.352 478.837 213.438 467.421 202.543L498.23 170.261C501.084 172.985 504.903 174.463 508.847 174.371L509.889 218.984Z" fill="#427CF0" stroke="white" stroke-width="1.61905"/>
</g>
<mask id="mask6_1_124" style="mask-type:luminance" maskUnits="userSpaceOnUse" x="449" y="159" width="50" height="44">
<path d="M467.734 202.84C461.823 197.28 457.111 190.569 453.889 183.12C450.668 175.671 449.004 167.642 449 159.526L493.625 159.507C493.626 161.535 494.042 163.543 494.848 165.405C495.653 167.267 496.831 168.945 498.309 170.335L467.734 202.84Z" fill="white"/>
</mask>
<g mask="url(#mask6_1_124)">
<path d="M467.734 202.84C461.823 197.28 457.111 190.569 453.889 183.12C450.668 175.671 449.004 167.642 449 159.526L493.625 159.507C493.626 161.535 494.042 163.543 494.848 165.405C495.653 167.267 496.831 168.945 498.309 170.335L467.734 202.84Z" fill="#719DF4" stroke="white" stroke-width="1.61905"/>
</g>
<mask id="mask7_1_124" style="mask-type:luminance" maskUnits="userSpaceOnUse" x="449" y="116" width="50" height="45">
<path d="M449.004 160.145C448.916 152.029 450.489 143.982 453.626 136.497C456.764 129.013 461.4 122.249 467.248 116.622L498.187 148.78C496.725 150.187 495.566 151.878 494.782 153.749C493.997 155.62 493.604 157.632 493.626 159.661L449.004 160.145Z" fill="white"/>
</mask>
<g mask="url(#mask7_1_124)">
<path d="M449.004 160.145C448.916 152.029 450.489 143.982 453.626 136.497C456.764 129.013 461.4 122.249 467.248 116.622L498.187 148.78C496.725 150.187 495.566 151.878 494.782 153.749C493.997 155.62 493.604 157.632 493.626 159.661L449.004 160.145Z" fill="#A1BEF7" stroke="white" stroke-width="1.61905"/>
</g>
<g clip-path="url(#clip0_1_124)">
<path d="M96.097 265.73L96.3836 265.187L95.4762 263.572L95.7647 261.778L94.6711 260.801L94.8756 257.594L94.2567 257.659L93.6414 257.021L93.1649 258.488H92.6282L91.6368 259.924L92.0494 261.718L91.2662 262.735L91.8431 264.649H89.9864L86.89 266.224L85.8165 268.676L86.1269 269.773V271.288L86.1195 271.297L86.7458 271.329L87.2606 272.745L88.975 272.027L89.3876 272.166L90.357 270.651L89.8421 270.193L90.6875 269.653L92.7925 269.934L94.777 268.351L96.1992 267.221L95.8067 266.284L96.097 265.73Z" fill="#08255E"/>
<path d="M103.679 265.274L101.946 264.771C101.946 264.771 102.567 263.586 102.596 263.501C102.625 263.418 101.556 263.572 101.556 263.572L100.371 264.395L99.865 263.697L99.938 266.027L99.4214 266.461L100.977 266.739L102.414 265.665L102.983 266.126L102.414 267.186L102.594 267.995L103.967 266.99L105.917 266.013L107.082 266.23L107.31 264.781L107.1 264.328L104.082 263.99L103.677 265.274H103.679Z" fill="#08255E"/>
<path d="M105.918 261.783L102.586 261.452L99.8655 263.697L100.371 264.395L101.556 263.572C101.556 263.572 102.624 263.418 102.597 263.501C102.568 263.584 101.947 264.771 101.947 264.771L103.679 265.274L104.085 263.99L107.103 264.328L105.921 261.783H105.918Z" fill="#104ABC"/>
<path d="M102.588 261.451L97.3844 257.328L94.8759 257.594L94.6714 260.801L95.765 261.778L95.4765 263.572L96.3839 265.187L96.0972 265.73L98.0745 265.93L98.9417 266.864L99.4219 266.461L99.9385 266.027L99.8655 263.697L102.588 261.451Z" fill="#A1BEF7"/>
<path d="M85.4476 254.377L82.3657 252.985L81.0879 253.359L81.2485 252.477L78.8531 251.352L78.1009 251.705L77.9184 250.867L77.6226 250.839L77.137 251.779L75.7787 252.313L74.9608 254.451L74.0187 254.467L71.4043 249.43L69.1241 248.976C69.1241 248.976 69.0821 248.135 69.0492 247.519L66.7835 247.274L67.4444 248.664L64.4101 248.156L61.5108 249.676L61.237 251.546V252.742L63.3019 255.054L66.2741 256.171L61.9199 264.785L62.6574 265.85L65.3266 269.709L77.5587 270.68L79.2584 266.999L79.7332 265.244L81.5698 263.071L80.991 261.714L83.0139 260.598L85.4531 254.373L85.4476 254.377Z" fill="#A1BEF7"/>
<path d="M59.6599 249.017L59.0884 246.371L59.8881 244.41L59.0665 243.57L59.0208 242.05L57.7428 242.094L57.4927 243.44L53.4524 245.115L53.133 244.475L49.8468 244.034L51.1941 246.547L52.9723 247.585L53.0874 248.047L54.1554 248.338L54.5059 253.802L56.3426 255.257L56.5909 253.005L58.3453 253.543L59.0683 251.629L61.2354 251.548L61.5093 249.678L59.6599 249.017Z" fill="#08255E"/>
<path d="M71.4009 249.431L74.0152 254.469L74.9573 254.453L75.7752 252.315L77.1336 251.781L77.6192 250.841L77.9149 250.869L78.4627 249.017L77.2541 247.761L76.8195 248.181L75.9523 245.867L75.3133 243.442L75.1307 244.808L73.5333 246.308L73.0768 248.269L71.0686 247.563L69.221 247.542L69.0439 247.523C69.0786 248.138 69.1187 248.98 69.1187 248.98L71.399 249.433L71.4009 249.431Z" fill="#104ABC"/>
<path d="M80.9877 261.718L83.1548 262.496L82.8645 265.646L83.8759 267.42L84.7432 266.962L84.8472 267.7L83.7536 269.254L85.1777 271.249L86.1198 271.297L86.127 271.288V269.773L85.8166 268.676L86.8902 266.224L89.9865 264.649H91.8433L91.2664 262.736L92.0496 261.718L91.637 259.924L92.6283 258.488H93.1651L93.6416 257.021L90.3772 256.269L89.4644 257.13L87.7519 254.506L86.9084 255.035L85.4479 254.377L83.0105 260.601L80.9877 261.718Z" fill="#104ABC"/>
<path d="M96.1571 284.747L97.3949 281.837L94.733 281.857L93.7836 280.759L88.7265 278.913L85.9806 280.655L83.9596 280.162V282.276L82.782 284.747L83.3188 285.954L82.3074 287.04L81.2758 286.622L77.2921 287.441L76.8229 288.899L76.5527 289.739L76.1985 290.012L78.1594 289.573L79.6035 289.753L79.5414 290.471L83.1325 289.753L83.8756 292.346H85.1152L84.4744 294.199L85.2795 295.595L88.0656 294.259L91.4504 293.7L92.9165 293.102L93.0808 291.764L93.6431 291.282L93.8239 290.291L94.4446 290.51L95.456 288.875L95.0635 286.642L96.9403 286.123L96.1571 284.747Z" fill="#08255E"/>
<path d="M105.917 266.013L103.967 266.99L102.595 267.995L102.414 267.186L102.985 266.124L102.414 265.663L100.977 266.739L99.4215 266.461L98.9413 266.864L98.0741 265.93L96.0968 265.73L95.8066 266.284L96.1991 267.221L94.7769 268.351L95.7919 269.948L98.1763 268.231L100.544 269.683L101.468 268.831L102.697 269.683L103.88 269.641L105.138 268.734L106.343 268.759L106.763 268.263L107.082 266.23L105.917 266.013Z" fill="#145CEB"/>
<path d="M86.1197 271.297L85.1777 271.249L83.7536 269.254L84.8472 267.7L84.7432 266.961L83.876 267.42L82.8646 265.646L83.1548 262.496L80.9878 261.718L81.5647 263.074L79.728 265.247L79.2534 267.002L77.5536 270.683L76.6937 272.546L76.5111 276.246L77.8493 275.556L77.665 276.334L79.3975 277.031L79.7079 276.334L81.4405 277.211L85.1248 276.417L84.7432 273.144L86.1197 271.297Z" fill="#08255E"/>
<path d="M85.1554 276.692L85.1244 276.417L81.4401 277.211L79.7075 276.334L79.3971 277.031L77.6646 276.334L77.849 275.556L76.5108 276.246L76.3008 280.5L73.1022 282.774L71.9465 284.548L72.6695 287.441L76.8229 288.899L77.2921 287.441L81.2758 286.622L82.3074 287.04L83.3188 285.954L82.782 284.747L83.9595 282.276V280.162L85.9806 280.656L85.1554 276.692Z" fill="#104ABC"/>
<path d="M95.0636 286.642L95.4561 288.875L94.4447 290.51L93.824 290.291L93.6432 291.282L94.1544 292.125L95.4543 292.214L95.5347 291.392L97.8844 288.945L97.9993 286.629L96.9404 286.123L95.0636 286.642Z" fill="#145CEB"/>
<path d="M94.1546 292.125L93.6434 291.282L93.0811 291.764L92.9168 293.102L91.4507 293.7L88.0659 294.26L88.4603 295.295L93.1614 295.492L93.8461 294.148L95.3286 293.508L95.4545 292.214L94.1546 292.125Z" fill="#104ABC"/>
<path d="M85.2797 295.595L84.4746 294.2L85.1154 292.346H83.8758L83.1327 289.753L79.5416 290.471L79.6036 289.753L78.1595 289.573L76.1987 290.012L75.2896 290.63L73.8454 293.741L72.6075 294.259L72.2716 294.699H75.724L76.7555 295.316H78.7364L79.4795 298.545L81.0697 298.785L81.0496 299.345L82.2619 299.738L83.6914 298.314L86.8389 296.925L88.4601 295.295L88.0657 294.259L85.2797 295.595Z" fill="#A1BEF7"/>
<path d="M81.0699 298.785L79.4797 298.546L78.7367 295.316H76.7557L75.7243 294.699H72.2718L70.1121 297.521L69.3361 300.276H70.7292L71.3444 301.733L75.8484 302.454L75.4138 302.036L76.9839 301.179L79.005 301.757L79.4597 301.179L80.723 301.269L82.2621 299.738L81.0498 299.345L81.0699 298.785Z" fill="#104ABC"/>
<path d="M105.138 268.734L103.88 269.641L102.697 269.683L101.468 268.831L100.544 269.683L104 271.696L104.822 271.35L104.778 270.602L106.343 268.759L105.138 268.734Z" fill="#104ABC"/>
<path d="M102.008 274.02L101.05 273.771L100.544 272.348L101.324 272.041L100.544 269.683L98.1763 268.231L95.7919 269.948L94.7768 268.351L92.7923 269.933L90.6873 269.653L89.842 270.193L90.3568 270.651L89.3874 272.166L88.9748 272.027L87.2605 272.745L86.7456 271.329L86.1194 271.297L84.7429 273.144L85.1244 276.417L85.1555 276.692L85.9806 280.656L88.7265 278.913L93.7837 280.76L94.733 281.857L97.3949 281.837L96.1571 284.747L96.9403 286.123L97.9992 286.629L99.0271 285.241L99.301 281.603L99.0033 276.994L101.057 275.959L102.008 274.02Z" fill="#A1BEF7"/>
<path d="M101.324 272.041L100.544 272.348L101.05 273.771L102.009 274.02L102.929 272.143L104 271.695L100.544 269.683L101.324 272.041Z" fill="#08255E"/>
<path d="M72.6696 287.441L71.2858 284.927L68.8101 285.446L66.7872 284.469L64.8063 285.585L63.6507 285.723L63.8131 286.321L63.1742 289.848L62.2614 290.113L63.1961 291.259L63.0829 293.75L65.5694 294.081L67.0994 293.662L67.8991 297.277L69.3815 296.859L70.1118 297.521L72.2716 294.699L72.6076 294.259L73.8454 293.741L75.2895 290.63L76.1987 290.012L76.5529 289.739L76.823 288.899L72.6696 287.441Z" fill="#08255E"/>
<path d="M59.0462 274.539L59.1704 272.724L56.4044 272.904L56.0539 268.337L55.3529 268.856L53.7425 267.141L52.3186 267.201L51.349 268.856H49.925V269.653L48.8296 269.554L48.459 269.933L46.9728 269.674L46.259 270.524L47.2047 270.997L48.0208 270.602L48.8205 270.556L49.003 271.791L48.6817 272.122L49.2076 272.784L48.773 273.466L50.3723 275.142L53.246 275.893L57.9252 277.855L60.0576 275.357L59.0462 274.539Z" fill="#A1BEF7"/>
<path d="M46.2591 270.524L40.4297 267.6L33.3698 265.552L32.6851 266.104L34.5327 268.992L34.1238 269.918L36.1996 270.844L39.1883 270.027L39.2357 272.937H43.2048L43.8 272.034L44.3915 272.366L47.2049 270.997L46.2591 270.524Z" fill="#08255E"/>
<path d="M65.3213 269.713L62.6521 265.854C62.4951 266.861 62.2249 268.558 62.2249 268.558L56.054 268.339L56.4046 272.905L59.1705 272.726L59.0463 274.54L60.0577 275.359L57.9254 277.856L58.8839 282.883L62.307 282.774L62.1245 284.538L63.4938 285.155L63.6507 285.726L64.8064 285.589L66.7873 284.472L68.8101 285.449L71.2876 284.931L72.6697 287.442L71.9467 284.552L73.1024 282.777L76.301 280.504L76.511 276.25L76.6935 272.547L77.5534 270.687L65.3213 269.717V269.713Z" fill="#145CEB"/>
<path d="M79.0047 301.757L76.9837 301.179L75.4135 302.036L75.8481 302.454L71.3441 301.733L70.9333 303.204L74.2579 303.511L76.7756 305.625L78.6541 305.885L78.1394 307.22L78.6706 307.398L80.4269 306.251L80.9747 303.98L80.7227 301.269L79.4594 301.179L79.0047 301.757Z" fill="#08255E"/>
<path d="M78.6543 305.885L76.7757 305.625L74.258 303.511L70.9334 303.204L66.9388 305.458L63.7675 309.271L65.2956 308.985L66.8256 310.97L67.5558 310.396L71.0247 312.425L72.2571 313.968L71.2985 314.629L71.3679 315.776L73.1023 314.873L74.174 312.492L77.2102 310.329L78.6707 307.398L78.1395 307.22L78.6543 305.885Z" fill="#145CEB"/>
<path d="M46.2589 270.524L46.9727 269.674L48.4588 269.933L48.8294 269.554L49.923 269.655V268.858H51.347L52.3165 267.203L53.7405 267.143L55.3508 268.858L56.0518 268.339L62.2227 268.558C62.2227 268.558 62.4929 266.861 62.6499 265.854L61.9123 264.789L66.2667 256.174L63.2944 255.058L61.2295 252.745V251.55L59.0625 251.629L58.3395 253.543L56.585 253.005L56.3366 255.257L54.5001 253.802L54.1495 248.338L53.0815 248.047L48.6304 250.671L48.3784 249.899L45.9594 250.516L45.755 248.731L45.1853 247.761L43.6335 248.488L43.5878 248.996L40.4622 248.731L40.7361 249.878L42.0141 250.163L42.2186 250.957H40.2103V252.259L41.3751 252.943L41.01 253.604L41.627 254.266L40.3947 260.219L38.6822 259.866L37.93 260.748L36.1043 260.704L34.6657 261.982L34.3918 264.408L32.84 264.915L33.3658 265.554L40.4257 267.602L46.2552 270.526L46.2589 270.524Z" fill="#104ABC"/>
</g>
<defs>
<clipPath id="clip0_1_124">
<rect width="75.31" height="74.36" fill="white" transform="translate(32 242)"/>
</clipPath>
</defs>
</svg>
