<svg width="318" height="134" viewBox="0 0 318 134" fill="none" xmlns="http://www.w3.org/2000/svg">
<path d="M59.4997 53.2165C59.4997 58.5102 58.5138 62.936 56.542 66.4938C54.5703 70.0301 51.709 72.6984 47.9584 74.4987C44.2077 76.2776 39.6855 77.167 34.3918 77.167H21.3395V30.166H35.8063C40.6714 30.166 44.8721 31.0448 48.4085 32.8022C51.9448 34.5382 54.6774 37.1208 56.6063 40.55C58.5352 43.9577 59.4997 48.1799 59.4997 53.2165ZM51.4626 53.4415C51.4626 49.5837 50.8518 46.4117 49.6301 43.9256C48.4299 41.4394 46.651 39.5962 44.2935 38.396C41.9574 37.1744 39.0747 36.5636 35.6455 36.5636H29.0551V70.7052H34.5204C40.1999 70.7052 44.4435 69.2585 47.2511 66.3652C50.0588 63.4718 51.4626 59.1639 51.4626 53.4415ZM92.2453 77.167H65.6264V30.166H92.2453V36.66H73.3421V49.4229H91.0559V55.8848H73.3421V70.6409H92.2453V77.167ZM112.067 30.166C118.133 30.166 122.558 31.4091 125.345 33.8952C128.131 36.3814 129.524 39.8641 129.524 44.3435C129.524 46.3796 129.202 48.3192 128.559 50.1624C127.938 51.9841 126.909 53.6022 125.473 55.0168C124.037 56.4099 122.141 57.5136 119.783 58.3281C117.447 59.1425 114.564 59.5497 111.135 59.5497H106.12V77.167H98.4043V30.166H112.067ZM111.553 36.5636H106.12V53.12H110.331C112.753 53.12 114.811 52.8414 116.504 52.2842C118.197 51.7055 119.483 50.7946 120.362 49.5515C121.24 48.3085 121.68 46.6689 121.68 44.6328C121.68 41.9109 120.855 39.8856 119.204 38.5568C117.575 37.228 115.025 36.5636 111.553 36.5636ZM176.64 53.6022C176.64 57.2243 176.179 60.5249 175.258 63.504C174.357 66.4616 172.996 69.0121 171.175 71.1553C169.353 73.2771 167.07 74.9167 164.327 76.074C161.584 77.2313 158.369 77.81 154.683 77.81C150.932 77.81 147.674 77.2313 144.909 76.074C142.166 74.9167 139.884 73.2664 138.062 71.1231C136.262 68.9799 134.911 66.4187 134.011 63.4397C133.111 60.4606 132.661 57.16 132.661 53.5379C132.661 48.6942 133.454 44.4721 135.04 40.8715C136.647 37.2494 139.08 34.4418 142.338 32.4486C145.617 30.4339 149.753 29.4266 154.747 29.4266C159.633 29.4266 163.695 30.4232 166.931 32.4164C170.167 34.4096 172.589 37.2173 174.197 40.8393C175.826 44.4399 176.64 48.6942 176.64 53.6022ZM140.762 53.6022C140.762 57.2243 141.255 60.3641 142.241 63.0217C143.227 65.6579 144.738 67.694 146.774 69.1299C148.832 70.5445 151.468 71.2517 154.683 71.2517C157.919 71.2517 160.555 70.5445 162.591 69.1299C164.627 67.694 166.127 65.6579 167.092 63.0217C168.056 60.3641 168.539 57.2243 168.539 53.6022C168.539 48.0941 167.435 43.7862 165.227 40.6786C163.041 37.5495 159.548 35.9849 154.747 35.9849C151.532 35.9849 148.885 36.6922 146.806 38.1067C144.749 39.5212 143.227 41.5466 142.241 44.1827C141.255 46.7975 140.762 49.9373 140.762 53.6022ZM209.868 64.372C209.868 67.1582 209.182 69.5586 207.81 71.5732C206.46 73.5878 204.51 75.131 201.959 76.2026C199.43 77.2742 196.408 77.81 192.893 77.81C191.179 77.81 189.539 77.7136 187.975 77.5207C186.41 77.3278 184.931 77.0492 183.538 76.6848C182.167 76.299 180.913 75.8382 179.777 75.3024V68.0369C181.684 68.8727 183.817 69.6336 186.174 70.3194C188.532 70.9838 190.932 71.316 193.376 71.316C195.369 71.316 197.019 71.0588 198.327 70.5445C199.655 70.0087 200.641 69.2585 201.284 68.2941C201.927 67.3082 202.249 66.1616 202.249 64.8542C202.249 63.4611 201.874 62.2823 201.123 61.3179C200.373 60.3534 199.237 59.4747 197.716 58.6817C196.215 57.8673 194.329 56.9993 192.058 56.0777C190.514 55.4561 189.036 54.7489 187.621 53.9559C186.228 53.1629 184.985 52.2306 183.892 51.159C182.799 50.0873 181.931 48.8228 181.288 47.3654C180.666 45.8866 180.356 44.1506 180.356 42.1574C180.356 39.4998 180.988 37.228 182.252 35.3419C183.538 33.4559 185.339 32.0092 187.653 31.0019C189.989 29.9946 192.711 29.4909 195.819 29.4909C198.284 29.4909 200.598 29.7481 202.763 30.2625C204.949 30.7768 207.092 31.5055 209.193 32.4486L206.749 38.6532C204.821 37.8602 202.945 37.228 201.123 36.7565C199.323 36.2849 197.48 36.0492 195.594 36.0492C193.965 36.0492 192.583 36.2957 191.447 36.7886C190.311 37.2815 189.443 37.9781 188.843 38.8783C188.264 39.757 187.975 40.8072 187.975 42.0288C187.975 43.4005 188.307 44.5578 188.971 45.5008C189.657 46.4224 190.707 47.269 192.122 48.0406C193.558 48.8121 195.401 49.6694 197.651 50.6124C200.245 51.684 202.442 52.8092 204.242 53.988C206.064 55.1668 207.457 56.5813 208.421 58.2316C209.386 59.8605 209.868 61.9073 209.868 64.372ZM214.934 77.167V30.166H222.649V77.167H214.934ZM247.358 77.167H239.61V36.7243H225.851V30.166H261.085V36.7243H247.358V77.167ZM293.413 77.167L288.816 64.1148H270.845L266.248 77.167H258.114L275.603 29.9731H284.154L301.611 77.167H293.413ZM286.823 57.4922L282.354 44.6328C282.182 44.0756 281.936 43.2933 281.615 42.286C281.293 41.2572 280.972 40.2178 280.65 39.1676C280.329 38.096 280.061 37.1958 279.846 36.4671C279.632 37.3458 279.364 38.3317 279.043 39.4248C278.743 40.4964 278.443 41.5037 278.142 42.4467C277.864 43.3898 277.65 44.1184 277.5 44.6328L272.999 57.4922H286.823Z" fill="#0F49BD"/>
<path d="M24.3965 96.4874C25.4512 96.4874 26.3213 96.6193 27.0068 96.8829C27.6982 97.1408 28.2139 97.5363 28.5537 98.0695C28.8936 98.6027 29.0635 99.2824 29.0635 100.109C29.0635 100.788 28.9404 101.357 28.6943 101.814C28.4482 102.265 28.126 102.631 27.7275 102.912C27.3291 103.193 26.9043 103.41 26.4531 103.563L29.9775 109.337H28.2373L25.0908 103.976H22.4189V109.337H20.9248V96.4874H24.3965ZM24.3086 97.7794H22.4189V102.71H24.458C25.5068 102.71 26.2773 102.496 26.7695 102.068C27.2676 101.641 27.5166 101.011 27.5166 100.179C27.5166 99.3058 27.2529 98.6876 26.7256 98.3243C26.2041 97.9611 25.3984 97.7794 24.3086 97.7794ZM36.8934 99.5285C37.7137 99.5285 38.4169 99.7101 39.0028 100.073C39.5887 100.437 40.037 100.946 40.3475 101.603C40.6581 102.253 40.8134 103.015 40.8134 103.888V104.793H34.16C34.1776 105.924 34.4589 106.785 35.0038 107.377C35.5487 107.969 36.3163 108.265 37.3065 108.265C37.9159 108.265 38.455 108.209 38.9237 108.098C39.3925 107.986 39.8788 107.822 40.3827 107.606V108.889C39.8964 109.106 39.413 109.264 38.9325 109.363C38.4579 109.463 37.8954 109.513 37.245 109.513C36.3192 109.513 35.5106 109.325 34.8192 108.95C34.1337 108.569 33.6005 108.013 33.2196 107.28C32.8387 106.548 32.6483 105.651 32.6483 104.591C32.6483 103.554 32.8212 102.657 33.1669 101.901C33.5184 101.14 34.0106 100.554 34.6434 100.144C35.2821 99.7335 36.0321 99.5285 36.8934 99.5285ZM36.8759 100.724C36.0966 100.724 35.4755 100.979 35.0126 101.488C34.5497 101.998 34.2743 102.71 34.1864 103.624H39.2841C39.2782 103.05 39.1874 102.546 39.0116 102.112C38.8417 101.673 38.5809 101.333 38.2294 101.093C37.8778 100.847 37.4266 100.724 36.8759 100.724ZM49.1882 99.5285C50.3894 99.5285 51.3474 99.9415 52.0623 100.768C52.7771 101.594 53.1345 102.836 53.1345 104.494C53.1345 105.59 52.9705 106.51 52.6423 107.254C52.3142 107.998 51.8513 108.561 51.2537 108.942C50.6619 109.322 49.9617 109.513 49.1531 109.513C48.6433 109.513 48.1951 109.445 47.8084 109.311C47.4216 109.176 47.0906 108.994 46.8152 108.766C46.5398 108.537 46.3113 108.288 46.1296 108.019H46.0242C46.0418 108.247 46.0623 108.523 46.0857 108.845C46.115 109.167 46.1296 109.448 46.1296 109.689V113.644H44.6619V99.7042H45.866L46.0593 101.128H46.1296C46.3171 100.835 46.5457 100.568 46.8152 100.328C47.0847 100.082 47.4129 99.8888 47.7996 99.7482C48.1921 99.6017 48.655 99.5285 49.1882 99.5285ZM48.9334 100.759C48.2654 100.759 47.7263 100.888 47.3162 101.146C46.9119 101.403 46.616 101.79 46.4285 102.306C46.241 102.816 46.1414 103.457 46.1296 104.231V104.512C46.1296 105.326 46.2175 106.015 46.3933 106.577C46.575 107.14 46.8709 107.568 47.281 107.86C47.697 108.153 48.2537 108.3 48.9509 108.3C49.5486 108.3 50.0466 108.139 50.4451 107.817C50.8435 107.494 51.1394 107.046 51.3328 106.472C51.532 105.892 51.6316 105.227 51.6316 104.477C51.6316 103.34 51.4089 102.438 50.9636 101.77C50.5242 101.096 49.8474 100.759 48.9334 100.759ZM65.359 104.503C65.359 105.294 65.2565 106 65.0514 106.621C64.8463 107.242 64.5504 107.767 64.1637 108.194C63.777 108.622 63.3082 108.95 62.7575 109.179C62.2125 109.401 61.5944 109.513 60.903 109.513C60.2584 109.513 59.6666 109.401 59.1276 109.179C58.5944 108.95 58.1315 108.622 57.7389 108.194C57.3522 107.767 57.0504 107.242 56.8336 106.621C56.6227 106 56.5172 105.294 56.5172 104.503C56.5172 103.448 56.6959 102.552 57.0534 101.814C57.4108 101.069 57.9205 100.504 58.5827 100.117C59.2506 99.7247 60.0446 99.5285 60.9645 99.5285C61.8434 99.5285 62.611 99.7247 63.2672 100.117C63.9293 100.51 64.442 101.078 64.8053 101.822C65.1745 102.561 65.359 103.454 65.359 104.503ZM58.0289 104.503C58.0289 105.276 58.1315 105.947 58.3366 106.516C58.5416 107.084 58.858 107.524 59.2858 107.834C59.7135 108.145 60.2643 108.3 60.9381 108.3C61.6061 108.3 62.1539 108.145 62.5817 107.834C63.0153 107.524 63.3346 107.084 63.5397 106.516C63.7448 105.947 63.8473 105.276 63.8473 104.503C63.8473 103.735 63.7448 103.073 63.5397 102.517C63.3346 101.954 63.0182 101.521 62.5905 101.216C62.1627 100.911 61.609 100.759 60.9293 100.759C59.9274 100.759 59.192 101.09 58.7233 101.752C58.2604 102.414 58.0289 103.331 58.0289 104.503ZM75.4829 106.7C75.4829 107.316 75.3277 107.834 75.0171 108.256C74.7124 108.672 74.273 108.985 73.6987 109.196C73.1304 109.407 72.4507 109.513 71.6597 109.513C70.9859 109.513 70.4029 109.46 69.9107 109.355C69.4185 109.249 68.9878 109.1 68.6187 108.906V107.562C69.0112 107.755 69.48 107.931 70.0249 108.089C70.5698 108.247 71.1265 108.326 71.6948 108.326C72.5269 108.326 73.1304 108.192 73.5054 107.922C73.8804 107.652 74.0679 107.286 74.0679 106.823C74.0679 106.56 73.9917 106.328 73.8394 106.129C73.6929 105.924 73.4439 105.728 73.0923 105.54C72.7407 105.347 72.2544 105.136 71.6333 104.907C71.0181 104.673 70.4849 104.442 70.0337 104.213C69.5884 103.979 69.2427 103.694 68.9966 103.36C68.7564 103.026 68.6362 102.593 68.6362 102.06C68.6362 101.245 68.9644 100.621 69.6206 100.188C70.2827 99.7482 71.1499 99.5285 72.2222 99.5285C72.8023 99.5285 73.3443 99.587 73.8482 99.7042C74.3579 99.8156 74.8325 99.9679 75.272 100.161L74.7798 101.33C74.3814 101.16 73.9566 101.017 73.5054 100.9C73.0542 100.782 72.5943 100.724 72.1255 100.724C71.4517 100.724 70.9331 100.835 70.5698 101.058C70.2124 101.28 70.0337 101.585 70.0337 101.972C70.0337 102.271 70.1157 102.517 70.2798 102.71C70.4497 102.903 70.7193 103.085 71.0884 103.255C71.4575 103.425 71.9439 103.624 72.5474 103.853C73.1509 104.075 73.6724 104.307 74.1118 104.547C74.5513 104.781 74.8882 105.068 75.1226 105.408C75.3628 105.742 75.4829 106.173 75.4829 106.7ZM80.6586 99.7042V109.337H79.1996V99.7042H80.6586ZM79.9467 96.1007C80.1869 96.1007 80.392 96.1798 80.5619 96.338C80.7377 96.4904 80.8256 96.7306 80.8256 97.0587C80.8256 97.381 80.7377 97.6212 80.5619 97.7794C80.392 97.9376 80.1869 98.0167 79.9467 98.0167C79.6947 98.0167 79.4838 97.9376 79.3139 97.7794C79.1498 97.6212 79.0678 97.381 79.0678 97.0587C79.0678 96.7306 79.1498 96.4904 79.3139 96.338C79.4838 96.1798 79.6947 96.1007 79.9467 96.1007ZM88.2337 108.318C88.4739 108.318 88.72 108.297 88.972 108.256C89.2239 108.215 89.429 108.165 89.5872 108.107V109.24C89.4173 109.317 89.18 109.381 88.8753 109.434C88.5764 109.486 88.2835 109.513 87.9964 109.513C87.4866 109.513 87.0237 109.425 86.6077 109.249C86.1917 109.068 85.8577 108.763 85.6057 108.335C85.3596 107.907 85.2366 107.316 85.2366 106.56V100.847H83.8655V100.135L85.2454 99.5636L85.8255 97.4718H86.7044V99.7042H89.5257V100.847H86.7044V106.516C86.7044 107.119 86.8421 107.57 87.1175 107.869C87.3987 108.168 87.7708 108.318 88.2337 108.318ZM101.214 104.503C101.214 105.294 101.111 106 100.906 106.621C100.701 107.242 100.405 107.767 100.019 108.194C99.632 108.622 99.1632 108.95 98.6125 109.179C98.0675 109.401 97.4494 109.513 96.758 109.513C96.1134 109.513 95.5216 109.401 94.9826 109.179C94.4494 108.95 93.9865 108.622 93.5939 108.194C93.2072 107.767 92.9054 107.242 92.6886 106.621C92.4777 106 92.3722 105.294 92.3722 104.503C92.3722 103.448 92.5509 102.552 92.9084 101.814C93.2658 101.069 93.7755 100.504 94.4377 100.117C95.1056 99.7247 95.8996 99.5285 96.8195 99.5285C97.6984 99.5285 98.466 99.7247 99.1222 100.117C99.7843 100.51 100.297 101.078 100.66 101.822C101.029 102.561 101.214 103.454 101.214 104.503ZM93.8839 104.503C93.8839 105.276 93.9865 105.947 94.1916 106.516C94.3966 107.084 94.713 107.524 95.1408 107.834C95.5685 108.145 96.1193 108.3 96.7931 108.3C97.4611 108.3 98.0089 108.145 98.4367 107.834C98.8703 107.524 99.1896 107.084 99.3947 106.516C99.5998 105.947 99.7023 105.276 99.7023 104.503C99.7023 103.735 99.5998 103.073 99.3947 102.517C99.1896 101.954 98.8732 101.521 98.4455 101.216C98.0177 100.911 97.464 100.759 96.7843 100.759C95.7824 100.759 95.047 101.09 94.5783 101.752C94.1154 102.414 93.8839 103.331 93.8839 104.503ZM99.3419 95.547V95.7228C99.2248 95.8927 99.0636 96.0978 98.8586 96.338C98.6593 96.5724 98.4367 96.8214 98.1906 97.0851C97.9445 97.3429 97.6955 97.589 97.4435 97.8234C97.1974 98.0577 96.9689 98.2599 96.758 98.4298H95.7824V98.2189C95.9699 97.9962 96.175 97.7296 96.3976 97.4191C96.6203 97.1027 96.8371 96.7804 97.048 96.4523C97.2589 96.1183 97.4347 95.8165 97.5753 95.547H99.3419ZM109.483 99.5285C109.677 99.5285 109.879 99.5402 110.09 99.5636C110.301 99.5812 110.488 99.6076 110.652 99.6427L110.468 100.996C110.31 100.955 110.134 100.923 109.94 100.9C109.747 100.876 109.565 100.864 109.396 100.864C109.009 100.864 108.643 100.943 108.297 101.102C107.957 101.254 107.658 101.477 107.4 101.77C107.143 102.057 106.94 102.405 106.794 102.816C106.647 103.22 106.574 103.671 106.574 104.169V109.337H105.106V99.7042H106.319L106.478 101.48H106.539C106.738 101.122 106.979 100.797 107.26 100.504C107.541 100.205 107.866 99.9679 108.235 99.7921C108.61 99.6163 109.026 99.5285 109.483 99.5285ZM115.301 99.7042V109.337H113.842V99.7042H115.301ZM114.589 96.1007C114.829 96.1007 115.034 96.1798 115.204 96.338C115.38 96.4904 115.468 96.7306 115.468 97.0587C115.468 97.381 115.38 97.6212 115.204 97.7794C115.034 97.9376 114.829 98.0167 114.589 98.0167C114.337 98.0167 114.126 97.9376 113.956 97.7794C113.792 97.6212 113.71 97.381 113.71 97.0587C113.71 96.7306 113.792 96.4904 113.956 96.338C114.126 96.1798 114.337 96.1007 114.589 96.1007ZM128.07 104.503C128.07 105.294 127.968 106 127.762 106.621C127.557 107.242 127.262 107.767 126.875 108.194C126.488 108.622 126.019 108.95 125.469 109.179C124.924 109.401 124.305 109.513 123.614 109.513C122.97 109.513 122.378 109.401 121.839 109.179C121.305 108.95 120.843 108.622 120.45 108.194C120.063 107.767 119.762 107.242 119.545 106.621C119.334 106 119.228 105.294 119.228 104.503C119.228 103.448 119.407 102.552 119.764 101.814C120.122 101.069 120.632 100.504 121.294 100.117C121.962 99.7247 122.756 99.5285 123.676 99.5285C124.554 99.5285 125.322 99.7247 125.978 100.117C126.64 100.51 127.153 101.078 127.516 101.822C127.886 102.561 128.07 103.454 128.07 104.503ZM120.74 104.503C120.74 105.276 120.843 105.947 121.048 106.516C121.253 107.084 121.569 107.524 121.997 107.834C122.425 108.145 122.975 108.3 123.649 108.3C124.317 108.3 124.865 108.145 125.293 107.834C125.726 107.524 126.046 107.084 126.251 106.516C126.456 105.947 126.558 105.276 126.558 104.503C126.558 103.735 126.456 103.073 126.251 102.517C126.046 101.954 125.729 101.521 125.302 101.216C124.874 100.911 124.32 100.759 123.64 100.759C122.638 100.759 121.903 101.09 121.434 101.752C120.971 102.414 120.74 103.331 120.74 104.503ZM141.867 109.513C141 109.513 140.235 109.334 139.573 108.977C138.911 108.619 138.395 108.074 138.026 107.342C137.657 106.61 137.472 105.687 137.472 104.573C137.472 103.407 137.666 102.455 138.052 101.717C138.445 100.973 138.984 100.422 139.669 100.065C140.355 99.7072 141.134 99.5285 142.007 99.5285C142.488 99.5285 142.951 99.5783 143.396 99.6779C143.847 99.7716 144.216 99.8917 144.503 100.038L144.064 101.26C143.771 101.143 143.431 101.037 143.044 100.943C142.664 100.85 142.306 100.803 141.972 100.803C141.304 100.803 140.748 100.946 140.302 101.234C139.863 101.521 139.532 101.943 139.309 102.499C139.092 103.056 138.984 103.741 138.984 104.556C138.984 105.335 139.089 106 139.3 106.551C139.517 107.102 139.836 107.524 140.258 107.817C140.686 108.104 141.219 108.247 141.858 108.247C142.368 108.247 142.828 108.194 143.238 108.089C143.648 107.978 144.02 107.849 144.354 107.702V109.003C144.032 109.167 143.671 109.293 143.273 109.381C142.88 109.469 142.412 109.513 141.867 109.513ZM156.315 104.503C156.315 105.294 156.212 106 156.007 106.621C155.802 107.242 155.506 107.767 155.12 108.194C154.733 108.622 154.264 108.95 153.713 109.179C153.168 109.401 152.55 109.513 151.859 109.513C151.214 109.513 150.622 109.401 150.083 109.179C149.55 108.95 149.087 108.622 148.695 108.194C148.308 107.767 148.006 107.242 147.789 106.621C147.579 106 147.473 105.294 147.473 104.503C147.473 103.448 147.652 102.552 148.009 101.814C148.367 101.069 148.876 100.504 149.539 100.117C150.206 99.7247 151 99.5285 151.92 99.5285C152.799 99.5285 153.567 99.7247 154.223 100.117C154.885 100.51 155.398 101.078 155.761 101.822C156.13 102.561 156.315 103.454 156.315 104.503ZM148.985 104.503C148.985 105.276 149.087 105.947 149.292 106.516C149.497 107.084 149.814 107.524 150.242 107.834C150.669 108.145 151.22 108.3 151.894 108.3C152.562 108.3 153.11 108.145 153.538 107.834C153.971 107.524 154.29 107.084 154.496 106.516C154.701 105.947 154.803 105.276 154.803 104.503C154.803 103.735 154.701 103.073 154.496 102.517C154.29 101.954 153.974 101.521 153.546 101.216C153.119 100.911 152.565 100.759 151.885 100.759C150.883 100.759 150.148 101.09 149.679 101.752C149.216 102.414 148.985 103.331 148.985 104.503ZM170.666 99.5285C171.727 99.5285 172.527 99.8068 173.066 100.363C173.605 100.914 173.874 101.802 173.874 103.026V109.337H172.433V103.097C172.433 102.318 172.263 101.735 171.923 101.348C171.589 100.955 171.091 100.759 170.429 100.759C169.497 100.759 168.821 101.028 168.399 101.568C167.977 102.107 167.766 102.901 167.766 103.949V109.337H166.316V103.097C166.316 102.575 166.24 102.142 166.087 101.796C165.941 101.45 165.718 101.193 165.419 101.023C165.126 100.847 164.754 100.759 164.303 100.759C163.664 100.759 163.152 100.891 162.765 101.154C162.378 101.418 162.097 101.811 161.921 102.332C161.751 102.848 161.666 103.484 161.666 104.239V109.337H160.207V99.7042H161.385L161.605 101.067H161.684C161.877 100.733 162.12 100.451 162.413 100.223C162.706 99.9943 163.034 99.8214 163.398 99.7042C163.761 99.587 164.148 99.5285 164.558 99.5285C165.29 99.5285 165.903 99.6661 166.395 99.9415C166.893 100.211 167.253 100.624 167.476 101.181H167.555C167.871 100.624 168.305 100.211 168.856 99.9415C169.407 99.6661 170.01 99.5285 170.666 99.5285ZM186.196 99.7042V109.337H185L184.789 107.984H184.71C184.511 108.318 184.253 108.599 183.937 108.827C183.62 109.056 183.263 109.226 182.864 109.337C182.472 109.454 182.053 109.513 181.608 109.513C180.846 109.513 180.207 109.39 179.692 109.144C179.176 108.898 178.786 108.517 178.523 108.001C178.265 107.485 178.136 106.823 178.136 106.015V99.7042H179.613V105.909C179.613 106.712 179.794 107.313 180.157 107.711C180.521 108.104 181.074 108.3 181.819 108.3C182.533 108.3 183.102 108.165 183.524 107.896C183.951 107.626 184.259 107.231 184.446 106.709C184.634 106.182 184.728 105.537 184.728 104.776V99.7042H186.196ZM201.109 99.5285C202.17 99.5285 202.97 99.8068 203.509 100.363C204.048 100.914 204.317 101.802 204.317 103.026V109.337H202.876V103.097C202.876 102.318 202.706 101.735 202.366 101.348C202.032 100.955 201.534 100.759 200.872 100.759C199.941 100.759 199.264 101.028 198.842 101.568C198.42 102.107 198.209 102.901 198.209 103.949V109.337H196.759V103.097C196.759 102.575 196.683 102.142 196.53 101.796C196.384 101.45 196.161 101.193 195.862 101.023C195.569 100.847 195.197 100.759 194.746 100.759C194.107 100.759 193.595 100.891 193.208 101.154C192.821 101.418 192.54 101.811 192.364 102.332C192.194 102.848 192.109 103.484 192.109 104.239V109.337H190.65V99.7042H191.828L192.048 101.067H192.127C192.32 100.733 192.564 100.451 192.857 100.223C193.149 99.9943 193.478 99.8214 193.841 99.7042C194.204 99.587 194.591 99.5285 195.001 99.5285C195.733 99.5285 196.346 99.6661 196.838 99.9415C197.336 100.211 197.696 100.624 197.919 101.181H197.998C198.315 100.624 198.748 100.211 199.299 99.9415C199.85 99.6661 200.453 99.5285 201.109 99.5285ZM218.158 109.513C216.939 109.513 215.973 109.097 215.258 108.265C214.549 107.433 214.194 106.196 214.194 104.556C214.194 102.898 214.557 101.647 215.284 100.803C216.011 99.9533 216.977 99.5285 218.184 99.5285C218.694 99.5285 219.139 99.5958 219.52 99.7306C219.901 99.8654 220.229 100.047 220.505 100.276C220.78 100.498 221.012 100.753 221.199 101.04H221.305C221.281 100.859 221.258 100.61 221.234 100.293C221.211 99.9767 221.199 99.7189 221.199 99.5197V95.6613H222.658V109.337H221.48L221.261 107.966H221.199C221.017 108.253 220.786 108.514 220.505 108.748C220.229 108.983 219.898 109.17 219.512 109.311C219.131 109.445 218.68 109.513 218.158 109.513ZM218.387 108.3C219.418 108.3 220.147 108.007 220.575 107.421C221.003 106.835 221.217 105.965 221.217 104.811V104.547C221.217 103.322 221.012 102.382 220.601 101.726C220.197 101.069 219.459 100.741 218.387 100.741C217.49 100.741 216.819 101.087 216.374 101.778C215.929 102.464 215.706 103.401 215.706 104.591C215.706 105.775 215.926 106.689 216.365 107.333C216.81 107.978 217.484 108.3 218.387 108.3ZM235.427 104.503C235.427 105.294 235.325 106 235.12 106.621C234.915 107.242 234.619 107.767 234.232 108.194C233.845 108.622 233.377 108.95 232.826 109.179C232.281 109.401 231.663 109.513 230.971 109.513C230.327 109.513 229.735 109.401 229.196 109.179C228.663 108.95 228.2 108.622 227.807 108.194C227.421 107.767 227.119 107.242 226.902 106.621C226.691 106 226.586 105.294 226.586 104.503C226.586 103.448 226.764 102.552 227.122 101.814C227.479 101.069 227.989 100.504 228.651 100.117C229.319 99.7247 230.113 99.5285 231.033 99.5285C231.912 99.5285 232.679 99.7247 233.336 100.117C233.998 100.51 234.51 101.078 234.874 101.822C235.243 102.561 235.427 103.454 235.427 104.503ZM228.097 104.503C228.097 105.276 228.2 105.947 228.405 106.516C228.61 107.084 228.926 107.524 229.354 107.834C229.782 108.145 230.333 108.3 231.007 108.3C231.675 108.3 232.222 108.145 232.65 107.834C233.084 107.524 233.403 107.084 233.608 106.516C233.813 105.947 233.916 105.276 233.916 104.503C233.916 103.735 233.813 103.073 233.608 102.517C233.403 101.954 233.087 101.521 232.659 101.216C232.231 100.911 231.677 100.759 230.998 100.759C229.996 100.759 229.26 101.09 228.792 101.752C228.329 102.414 228.097 103.331 228.097 104.503ZM245.585 96.4874H249.224C250.83 96.4874 252.037 96.7277 252.845 97.2081C253.654 97.6886 254.058 98.506 254.058 99.6603C254.058 100.158 253.961 100.607 253.768 101.005C253.581 101.398 253.305 101.723 252.942 101.981C252.579 102.238 252.13 102.417 251.597 102.517V102.605C252.16 102.693 252.658 102.854 253.091 103.088C253.525 103.322 253.865 103.651 254.111 104.072C254.357 104.494 254.48 105.03 254.48 105.681C254.48 106.472 254.295 107.14 253.926 107.685C253.563 108.23 253.047 108.643 252.379 108.924C251.711 109.199 250.92 109.337 250.006 109.337H245.585V96.4874ZM247.08 101.998H249.541C250.66 101.998 251.433 101.814 251.861 101.444C252.294 101.075 252.511 100.536 252.511 99.8273C252.511 99.0949 252.253 98.5675 251.738 98.2452C251.228 97.923 250.414 97.7618 249.294 97.7618H247.08V101.998ZM247.08 103.255V108.063H249.751C250.894 108.063 251.703 107.84 252.177 107.395C252.652 106.943 252.889 106.337 252.889 105.575C252.889 105.089 252.781 104.673 252.564 104.327C252.353 103.982 252.007 103.718 251.527 103.536C251.052 103.349 250.416 103.255 249.62 103.255H247.08ZM262.749 99.5285C262.943 99.5285 263.145 99.5402 263.356 99.5636C263.567 99.5812 263.754 99.6076 263.918 99.6427L263.734 100.996C263.576 100.955 263.4 100.923 263.206 100.9C263.013 100.876 262.831 100.864 262.661 100.864C262.275 100.864 261.909 100.943 261.563 101.102C261.223 101.254 260.924 101.477 260.666 101.77C260.409 102.057 260.206 102.405 260.06 102.816C259.913 103.22 259.84 103.671 259.84 104.169V109.337H258.372V99.7042H259.585L259.744 101.48H259.805C260.004 101.122 260.244 100.797 260.526 100.504C260.807 100.205 261.132 99.9679 261.501 99.7921C261.876 99.6163 262.292 99.5285 262.749 99.5285ZM270.711 99.546C271.86 99.546 272.712 99.8038 273.269 100.319C273.825 100.835 274.104 101.658 274.104 102.789V109.337H273.04L272.759 107.913H272.689C272.419 108.265 272.138 108.561 271.845 108.801C271.552 109.035 271.212 109.214 270.825 109.337C270.445 109.454 269.976 109.513 269.419 109.513C268.833 109.513 268.312 109.41 267.855 109.205C267.404 109 267.046 108.69 266.782 108.274C266.525 107.858 266.396 107.33 266.396 106.692C266.396 105.731 266.777 104.992 267.538 104.477C268.3 103.961 269.46 103.68 271.019 103.633L272.68 103.563V102.974C272.68 102.142 272.501 101.559 272.144 101.225C271.786 100.891 271.282 100.724 270.632 100.724C270.128 100.724 269.648 100.797 269.191 100.943C268.734 101.09 268.3 101.263 267.89 101.462L267.442 100.355C267.875 100.132 268.373 99.9415 268.936 99.7833C269.498 99.6251 270.09 99.546 270.711 99.546ZM272.662 104.591L271.195 104.652C269.993 104.699 269.147 104.896 268.655 105.241C268.162 105.587 267.916 106.076 267.916 106.709C267.916 107.26 268.083 107.667 268.417 107.931C268.751 108.194 269.194 108.326 269.744 108.326C270.6 108.326 271.3 108.089 271.845 107.614C272.39 107.14 272.662 106.428 272.662 105.479V104.591ZM284.711 106.7C284.711 107.316 284.556 107.834 284.245 108.256C283.941 108.672 283.501 108.985 282.927 109.196C282.359 109.407 281.679 109.513 280.888 109.513C280.214 109.513 279.631 109.46 279.139 109.355C278.647 109.249 278.216 109.1 277.847 108.906V107.562C278.239 107.755 278.708 107.931 279.253 108.089C279.798 108.247 280.355 108.326 280.923 108.326C281.755 108.326 282.359 108.192 282.734 107.922C283.109 107.652 283.296 107.286 283.296 106.823C283.296 106.56 283.22 106.328 283.068 106.129C282.921 105.924 282.672 105.728 282.32 105.54C281.969 105.347 281.483 105.136 280.861 104.907C280.246 104.673 279.713 104.442 279.262 104.213C278.817 103.979 278.471 103.694 278.225 103.36C277.984 103.026 277.864 102.593 277.864 102.06C277.864 101.245 278.193 100.621 278.849 100.188C279.511 99.7482 280.378 99.5285 281.45 99.5285C282.03 99.5285 282.572 99.587 283.076 99.7042C283.586 99.8156 284.061 99.9679 284.5 100.161L284.008 101.33C283.609 101.16 283.185 101.017 282.734 100.9C282.282 100.782 281.822 100.724 281.354 100.724C280.68 100.724 280.161 100.835 279.798 101.058C279.441 101.28 279.262 101.585 279.262 101.972C279.262 102.271 279.344 102.517 279.508 102.71C279.678 102.903 279.947 103.085 280.317 103.255C280.686 103.425 281.172 103.624 281.776 103.853C282.379 104.075 282.901 104.307 283.34 104.547C283.779 104.781 284.116 105.068 284.351 105.408C284.591 105.742 284.711 106.173 284.711 106.7ZM289.887 99.7042V109.337H288.428V99.7042H289.887ZM289.175 96.1007C289.415 96.1007 289.62 96.1798 289.79 96.338C289.966 96.4904 290.054 96.7306 290.054 97.0587C290.054 97.381 289.966 97.6212 289.79 97.7794C289.62 97.9376 289.415 98.0167 289.175 98.0167C288.923 98.0167 288.712 97.9376 288.542 97.7794C288.378 97.6212 288.296 97.381 288.296 97.0587C288.296 96.7306 288.378 96.4904 288.542 96.338C288.712 96.1798 288.923 96.1007 289.175 96.1007ZM295.818 109.337H294.35V95.6613H295.818V109.337Z" fill="#2C3238"/>
</svg>
