<svg width="88" height="113" viewBox="0 0 88 113" fill="none" xmlns="http://www.w3.org/2000/svg">
<path d="M32.2877 47.5828C32.2877 47.5828 52.933 12.0705 64.6468 16.3508C69.826 18.2342 69.5121 31.8741 62.8919 47.1833C54.5453 66.4874 38.5798 88.0316 38.0519 86.9901C37.952 86.7903 39.0506 85.7773 39.9923 84.4362C41.633 82.1105 43.9159 78.458 46.7837 73.7782C49.9939 68.5277 52.8474 62.2071 55.6439 55.8009C62.578 39.9638 64.9036 23.5845 59.6246 23.5845C49.2235 23.5845 32.2877 47.5828 32.2877 47.5828Z" fill="black"/>
<path d="M5.53589 67.3435V59.3679H5.93538C6.27781 61.8076 6.97692 63.691 8.01846 65.0321C9.06001 66.3733 10.3584 67.0439 11.9135 67.0439C12.9551 67.0439 13.8254 66.7014 14.5245 66.0023C15.2236 65.3032 15.5661 64.4329 15.5661 63.3771C15.5661 62.5067 15.3092 61.7506 14.8099 61.08C14.2962 60.4094 13.3688 59.6817 12.0134 58.8685C11.5854 58.6117 10.9719 58.2692 10.1729 57.8555C8.74612 57.0993 7.77591 56.4858 7.26228 56.0007C6.87705 55.6155 6.56316 55.1589 6.34915 54.631C6.13513 54.1031 6.02099 53.5609 6.02099 52.9759C6.02099 51.5634 6.43475 50.4077 7.26228 49.5089C8.0898 48.61 9.14561 48.1677 10.4297 48.1677C11.2715 48.1677 12.0277 48.3675 12.7125 48.767C13.3974 49.1665 14.0537 49.7942 14.71 50.6646L16.1653 48.182H16.3223V55.3586H15.9228C15.509 53.1899 14.8384 51.5349 13.8967 50.3792C12.9693 49.2235 11.8279 48.6528 10.501 48.6528C9.48804 48.6528 8.64624 48.9382 7.97566 49.5232C7.30508 50.1081 6.96266 50.8215 6.96266 51.6918C6.96266 52.8047 8.30382 54.0888 11.0004 55.5441C11.5283 55.8295 11.9278 56.0435 12.2132 56.2004C13.9396 57.1564 15.1523 58.0695 15.8372 58.9684C16.5363 59.8529 16.8787 60.8945 16.8787 62.0644C16.8787 63.6339 16.3936 64.9322 15.4377 65.9738C14.4817 67.0011 13.2832 67.529 11.8422 67.529C10.9719 67.529 10.1443 67.3007 9.37389 66.8298C8.60344 66.359 7.89006 65.6742 7.24801 64.761L5.82124 67.3292L5.53589 67.3435Z" fill="#D81F2B"/>
<path d="M28.1073 62.4639C27.9789 64.0619 27.5509 65.3032 26.809 66.1878C26.0671 67.0867 25.1111 67.529 23.9412 67.529C22.6143 67.529 21.4586 66.9012 20.4884 65.6314C19.5182 64.3615 19.0474 62.8349 19.0474 61.0372C19.0474 60.0242 19.2328 59.054 19.5895 58.1408C19.9605 57.2277 20.4741 56.4287 21.159 55.7439C21.587 55.3301 22.0436 55.0162 22.5287 54.8165C23.028 54.6167 23.5702 54.5168 24.1837 54.5168C25.0398 54.5168 25.7674 54.8165 26.3809 55.43C26.9802 56.0435 27.2798 56.7854 27.2798 57.6557C27.2798 58.1408 27.1514 58.5403 26.8946 58.84C26.6378 59.1396 26.3096 59.2965 25.8958 59.2965C25.5392 59.2965 25.2538 59.1824 25.0113 58.9398C24.783 58.6973 24.6546 58.3977 24.6546 58.041C24.6546 57.6843 24.7687 57.3846 24.997 57.1421C25.2253 56.9138 25.5106 56.7997 25.8673 56.7997C26.0528 56.7997 26.2097 56.8425 26.3667 56.9138C26.5094 56.9852 26.6663 57.1136 26.809 57.2562C26.6663 56.5286 26.3667 55.9579 25.8958 55.5441C25.425 55.1304 24.84 54.9306 24.1409 54.9306C23.0423 54.9306 22.2861 55.3586 21.8581 56.229C21.4301 57.0993 21.216 58.8685 21.216 61.5651C21.216 63.6339 21.4301 65.0607 21.8438 65.8596C22.2576 66.6586 22.9852 67.0581 23.9982 67.0581C25.0255 67.0581 25.8673 66.6444 26.5379 65.8168C27.2085 64.9893 27.5794 63.8764 27.6793 62.4497L28.1073 62.4639Z" fill="#D81F2B"/>
<path d="M33.1153 66.7871H34.9701V67.2151H29.3344V66.7871H31.1606V55.2303H29.3344V54.8022H33.1153V66.7871Z" fill="#D81F2B"/>
<path d="M31.0465 51.7632C32.1733 51.7632 33.0868 50.8753 33.0868 49.78C33.0868 48.6847 32.1733 47.7968 31.0465 47.7968C29.9197 47.7968 29.0062 48.6847 29.0062 49.78C29.0062 50.8753 29.9197 51.7632 31.0465 51.7632Z" fill="black"/>
<path d="M37.2102 73.2789V72.7795H39.7784V55.0448H37.2102V54.5454H50.2366V60.9231H49.9512C49.6374 58.7544 49.1237 57.2277 48.4246 56.3574C47.7255 55.4871 46.6554 55.0448 45.2429 55.0448H41.9756V62.9776H42.9743C43.9303 62.9776 44.6865 62.6067 45.2429 61.879C45.7993 61.1513 46.099 60.1241 46.1418 58.8114H46.3843V67.315H46.1418C46.0562 65.9167 45.7851 64.9323 45.3142 64.333C44.8434 63.7338 44.1158 63.4342 43.1313 63.4342H41.9756V72.7652H45.1858C46.6269 72.7652 47.7683 72.2088 48.5815 71.0817C49.3948 69.9545 49.937 68.2138 50.2081 65.8597H50.522V73.2646L37.2102 73.2789Z" fill="#D81F2B"/>
<path d="M60.6805 54.5454V55.0448H58.1123V72.7795H60.4237C62.1643 72.7795 63.5198 72.1517 64.49 70.8819C65.4602 69.6121 66.1022 67.6146 66.4447 64.8895H66.73V73.2931H53.3469V72.7938H55.9151V55.0448H53.3469V54.5454H60.6805Z" fill="#D81F2B"/>
<path d="M75.4904 54.26C76.218 54.26 76.9314 54.4312 77.6163 54.7879C78.3011 55.1446 78.9146 55.644 79.4711 56.286C80.3129 57.299 80.9549 58.469 81.3829 59.8101C81.811 61.1513 82.0393 62.6209 82.0393 64.2046C82.0393 65.5885 81.868 66.8584 81.5256 67.9998C81.1832 69.1412 80.6696 70.1827 79.9847 71.1101C79.3997 71.8949 78.7149 72.4941 77.9302 72.9364C77.1454 73.3787 76.3322 73.5927 75.5047 73.5927C74.6771 73.5927 73.8639 73.3787 73.0649 72.9364C72.2659 72.4941 71.581 71.8949 70.9961 71.1101C70.3112 70.1827 69.7976 69.1555 69.4552 67.9998C69.1127 66.8584 68.9415 65.5885 68.9415 64.2046C68.9415 63.1488 69.0414 62.1215 69.2554 61.137C69.4552 60.1526 69.7548 59.2394 70.1543 58.3976C70.7821 57.0707 71.5668 56.0435 72.4942 55.3301C73.4073 54.631 74.406 54.26 75.4904 54.26ZM75.4904 73.0933C76.1752 73.0933 76.7887 72.8936 77.3452 72.4941C77.9016 72.0946 78.3867 71.5096 78.7862 70.7392C79.0573 70.2398 79.2428 69.555 79.3569 68.7132C79.4711 67.8714 79.5281 66.2734 79.5281 63.9192C79.5281 61.3225 79.4425 59.5533 79.2713 58.6259C79.1001 57.6985 78.8005 56.9423 78.3867 56.3574C78.0158 55.8437 77.5735 55.4442 77.0598 55.1589C76.5462 54.8735 76.0183 54.7308 75.4761 54.7308C74.9197 54.7308 74.3775 54.8735 73.8639 55.1589C73.3502 55.4442 72.9079 55.8437 72.5512 56.3574C72.1232 56.9423 71.8379 57.7128 71.6667 58.6402C71.4954 59.5676 71.4098 61.3225 71.4098 63.9335V64.5327C71.4098 66.5587 71.4669 67.9713 71.581 68.7845C71.6952 69.5835 71.8807 70.2398 72.1518 70.7534C72.5513 71.5239 73.0364 72.1089 73.6071 72.5084C74.1778 72.8936 74.8055 73.0933 75.4904 73.0933Z" fill="#D81F2B"/>
</svg>
